<?xml version="1.0" encoding="utf-8"?>
<!-- Generator: Adobe Illustrator 16.0.0, SVG Export Plug-In . SVG Version: 6.00 Build 0)  -->
<!DOCTYPE svg PUBLIC "-//W3C//DTD SVG 1.1//EN" "http://www.w3.org/Graphics/SVG/1.1/DTD/svg11.dtd">
<svg version="1.1" id="Layer_1" xmlns="http://www.w3.org/2000/svg" xmlns:xlink="http://www.w3.org/1999/xlink" x="0px" y="0px"
	 width="804px" height="428px" viewBox="0 0 804 428" enable-background="new 0 0 804 428" xml:space="preserve">
<g id="layer102">
	<path d="M269.935,415.789c-3.3-0.1-17.9-0.699-32.5-1.299c-42.4-1.701-59.2-2.9-80.5-5.5c-11-1.301-25-2.9-31.2-3.5
		c-20.9-2-63-9.801-67.5-12.6c-0.4-0.301-0.8-2-0.8-3.801c0-4,1-4.5,15.5-7.6c10-2.1,12.1-2.9,9.7-3.701
		c-3.9-1.398-13.9-9.299-17.4-13.6c-8.1-10.299-12.2-20.9-15.4-39.199c-0.8-4.9-1.7-9.701-2-10.6c-0.2-0.9-3.6-3.701-7.4-6.301
		c-3.9-2.699-7.2-5.199-7.5-5.6c-0.3-0.5,3-0.6,7.2-0.4c4.3,0.199,17.3,0.9,28.8,1.5c21.6,1.1,36.1,2,64,3.801
		c76.5,5,194.5,8.398,197.2,5.699c0.3-0.301-0.4-1.5-1.5-2.699c-2.101-2.201-2.3-2.201-20.9-1.301c-23.6,1.1-37.4,0.9-46.6-0.699
		c-6.1-1.102-6.7-1.4-4.2-1.9c4.1-0.9-5.4-1.6-55.5-4c-22.8-1.1-63.7-3.4-90.7-5c-57-3.5-52.6-3.301-51.7-1.9
		c0.6,1-5,0.801-14.3-0.699c-3.7-0.602-4.1,0.1-1.6,2.799c1.5,1.701,1.4,1.801-3.5,1.801c-5.6,0-6.1-0.4-3.6-3.1
		c1.7-1.9,1.8-1.801-8-3.5c-3.7-0.602-3.8-0.602-2.7,1.5c1,1.898,0.9,2.199-1.6,3.199c-3.8,1.4-12.2-1.6-14.1-5.1
		c-1.5-2.9-0.7-16.6,1.1-18.801c1.2-1.5,4.4-1.1,19,2.4c15.1,3.6,31.1,5.199,85.7,8.4c27.8,1.699,51,3.299,51.5,3.5
		c0.6,0.299-7.5,0.1-18-0.301c-10.4-0.4-23-0.6-28-0.5c-4.9,0.201-14.5,0.301-21.2,0.301c-14.2,0-20.2,1.299-10.8,2.299
		c14.9,1.602,150.3,8.701,165.3,8.701c10.6,0,4.1-1.301-15.5-3.201c-10.9-1-25.2-2.699-31.8-3.699l-12-1.9l7-0.1
		c3.9,0,19.2,0.4,34,0.9c30.4,1.1,100.3,1.5,101.2,0.6c1.5-1.5-1.8-2.1-15-2.699c-7.8-0.4-15.5-1-17.2-1.301
		c-1.6-0.301-17.8-1.301-36-2.1c-110.8-5.1-240.2-12.701-241.5-14.201c-0.9-0.799,9.6-35.299,14.6-48.199
		c4.8-12.3,12.5-18.2,21.5-16.4c4.5,0.9,10.9,7.6,14.7,15.701c1.7,3.6,3.4,6.6,3.7,6.6s1.4-1.5,2.5-3.201
		c5.1-8.399-0.9-21.899-10.4-23.5c-3.1-0.5-12.1,0.7-18.1,2.4c-6,1.7,13-12.8,25.5-19.5c13.8-7.4,34.3-13.2,46.6-13.2
		c3.9,0,5-0.6,11.1-6.1c9-8.2,17-14.1,19.1-14.3c0.9-0.1,7.3-2.9,14.2-6.4c13.2-6.6,24-9.8,53.3-15.7c7.5-1.6,13.7-3.3,13.7-3.8
		c0-1.4,18.5-32.8,30.3-51.7c10.6-16.8,20.6-27.6,30.7-33.2c39.1-21.8,111.2-31.9,198.2-27.8c64.7,3,112.7,14.2,141.8,33.1
		c9.6,6.2,31.6,23.7,39.1,31.2c15.4,15.3,23.9,33.6,41,88.3l2.2,7.2l6.5,1c8.8,1.5,19.3,6.8,27.601,13.8c3.699,3.3,8.399,6.8,10.3,8
		c4.7,2.9,6.5,4.8,3.6,4c-1.8-0.6-2-0.4-1.6,1.4c0.6,2.4,4,5,6.5,5c2.8,0,3.7,3.1,4.8,16.1c1.2,14.6,5,33.699,7.4,37.5
		c1.399,2,2.399,2.5,4.5,2.199l2.699-0.398l0.101,7.299c0.1,5.801-0.2,7.701-1.8,9.701c-1.101,1.5-2.7,2.6-3.5,2.6
		c-1,0-1.4,1.299-1.4,4.5c0,5.6-1.7,9.4-4.6,10.1c-1.301,0.301-5.601,0.9-9.5,1.199l-7.2,0.701l-1.9,11
		c-3.3,20.1-8.899,34.199-17.6,45.1c-8.2,10.1-5.4,9.301-46.4,12.5c-39.2,3.1-99.6,11-204.8,26.9c-28.9,4.299-54.9,8.199-57.7,8.6
		c-3.399,0.4-7.1,1.801-10.399,4c-6.301,4-10.301,4.9-32.2,6.9C354.534,415.789,303.435,417.391,269.935,415.789z M413.734,383.891
		c9.3-4.9,16.9-14,21.601-26.4c3.5-9,4.1-13.5,1.1-8c-2.3,4.299-2.4,4-0.5-3c3.2-11.701,1.3-10.4-3.4,2.5
		c-4.5,12-10.699,21.299-17.3,25.799c-5.3,3.5-12.7,6-11.399,3.801c0.399-0.6,1.3-1.1,2.1-1.1c1.6,0,7.5-4.801,7.5-6.201
		c0-0.5-0.9-0.6-2.1-0.299c-2.101,0.699-2.101,0.699,0.199-2.4c1.2-1.699,2.101-3.301,1.801-3.5c-0.2-0.301-3.601,2-7.4,5
		c-4.7,3.6-8,5.4-10,5.5c-1.6,0-3.9,0.4-5,0.801c-2,0.799-2,0.799,0.2,1.5c1.1,0.398,2.399,1.299,2.7,2.1
		C395.635,384.891,407.335,387.09,413.734,383.891z M216.935,365.49c39.5-4.4,72.5-8,73.2-8c0.7,0,1.3-0.4,1.3-0.9
		c0-1.699-8.7-3-26.5-4.1c-9.9-0.6-22.3-1.9-27.5-3c-5.2-1-18.5-2.4-29.5-3s-24.4-1.801-29.9-2.5c-5.4-0.701-10.5-1.1-11.3-0.801
		c-0.8,0.301-3.9,4.4-7.1,9.201c-3.1,4.699-8.5,11.398-11.9,14.799c-4.4,4.4-5.7,6.301-4.5,6.301
		C144.234,373.49,177.435,369.891,216.935,365.49z M419.335,361.891c4.199-1.701,6.6-5.4,7.699-11.602l0.5-3.299l-1.8,3.299
		c-1.2,2.102-2.2,2.9-2.899,2.201c-0.601-0.6-2.2,1.1-4.7,5c-2,3.299-3.5,6-3.2,6C415.135,363.49,417.135,362.789,419.335,361.891z
		 M413.135,359.49c3-1.801,6.1-6.6,7.7-11.801c0.5-1.5,0.1-3-1.301-4.799l-2.1-2.701l2.5-3.299c3.3-4.301,3.2-4.801-0.7-2.4
		c-4.899,2.9-7.3,2.6-9.8-1.5c-1.2-1.9-2.4-3.5-2.7-3.5s-0.3,2.4-0.1,5.299l0.3,5.201l-5.6,0.299c-6.301,0.301-8-0.898-10.2-7.398
		c-1.9-5.301-3.2-4.102-3,2.898c0.3,10.201,4.7,19.701,11,23.9C402.835,361.99,409.135,361.99,413.135,359.49z M680.835,335.789
		c-1.801-5.799-3.9-11-4.601-11.5c-0.7-0.398-3.2-1.5-5.5-2.398c-6.2-2.4-8.8-1.4-11.899,4.898c-1.5,2.801-2.801,5.301-2.9,5.5
		c-0.1,0.102-6.3-1.299-13.6-3.299c-7.4-1.9-15.601-3.5-18.4-3.4c-8.9,0.1-55.9,6.4-55.7,7.4c0.101,0.6,8.101,1.299,19.9,1.6
		c23,0.801,64.6,4.301,75,6.5c4,0.801,9.899,2.301,13,3.301c3.2,1.1,6.3,1.898,6.899,2
		C683.734,346.49,682.935,342.289,680.835,335.789z M745.534,333.689c3.601-4.199,6.4-10.1,5.7-12.199c-0.2-0.6-2.3,2.4-4.8,6.6
		c-2.6,4.4-5.9,8.6-7.7,9.801c-1.8,1.199-3.3,2.5-3.3,2.898C735.435,342.391,741.734,337.891,745.534,333.689z M577.835,326.99
		c68.699-7.5,83.6-9.4,75.5-9.5c-5.601-0.1-156.9,16.5-156.9,17.199c0,0.4,1,0.801,2.3,0.801
		C499.935,335.49,535.534,331.689,577.835,326.99z M743.734,330.289c3-4.1,4.7-7.199,5.7-10.898c1.1-3.801-0.4-3.701-2,0.1
		c-0.7,1.699-2.8,5.5-4.6,8.5C739.234,333.99,739.835,335.49,743.734,330.289z M383.234,321.49c4.101-13.1,6.4-18,10.9-23
		s13-10,16.899-10c3.601,0,3.7-1.6,0.301-4.4c-4.101-3.5-6.301-3.301-8.801,0.9c-2.5,4.199-5.199,4.5-8.1,0.799l-2.1-2.699l-2.4,2.9
		c-1.4,1.699-3.6,4.699-5.1,6.699l-2.601,3.701l2.8,2.398l2.801,2.4l-1.801,4.6c-1.6,4.301-4.399,6.602-6.5,5.301
		c-1.1-0.699-2.1,5.199-2.1,12.699c0,5,0.2,5.801,1.8,5.5C380.435,329.09,381.635,326.689,383.234,321.49z M737.935,318.99
		c0.6-1.701,2.5-5.1,4.3-7.5c3.5-4.801,3.9-6,2-6c-0.7,0-2.899,2.199-4.8,5c-3.7,5.299-5,5.9-7,3.5c-0.9-1.1-2.2-1.4-4.2-1
		c-2.6,0.6-3,0.299-4.399-3.201c-3-7.6-3.4-8-2.801-2.799c1.2,9.299,6.9,15.9,13.4,15.299
		C736.234,322.09,737.234,321.09,737.935,318.99z M419.734,312.49c0.5-0.4-0.6-1-2.399-1.4c-4.2-0.801-7.9,1.5-7.9,5v2.5l4.8-2.699
		C416.835,314.391,419.335,312.891,419.734,312.49z M397.935,303.49c1.4-1.1,2.7-1.201,7.2-0.201c6.399,1.301,6.5,1.301,11.1-5.199
		l3.3-4.5l-2.699-1.801c-8.301-5.398-20,2.201-24.7,16.102c-2.601,7.5-1.9,8.699,1.3,2.5
		C394.935,307.391,397.034,304.289,397.935,303.49z M332.234,306.49c2.8,0,5.2-0.4,5.2-1c0-1.1-12.3-1.301-24.7-0.301
		c-12.899,1-10.3,2.701,3,2C321.835,306.789,329.335,306.49,332.234,306.49z M336.935,298.49c0.4-0.701-5.3-1-16.5-1
		s-16.9,0.299-16.5,1c0.4,0.6,7,1,16.5,1S336.534,299.09,336.935,298.49z M78.334,288.09c-1.1-1-7.9-1.6-7.9-0.699
		c0,0.5,1.7,1.1,3.8,1.299C77.935,288.99,79.135,288.789,78.334,288.09z M63.734,286.789c-0.7-0.199-2.1-0.199-3,0
		c-1,0.301-0.4,0.5,1.2,0.5C63.635,287.289,64.334,287.09,63.734,286.789z M723.635,281.689c2.3-6.4,5.7-11.299,9.5-13.699
		c4-2.5,4.2-3.9,0.6-3.1c-4.399,1-9.8,7.699-11.7,14.398c-1.8,6.602-1.899,7.201-0.8,7.201
		C721.635,286.49,722.734,284.289,723.635,281.689z M719.935,271.789c2.7-4.398,2.7-4.699,0.9-6c-1-0.699-2-1.299-2.4-1.299
		c-0.7,0-3.8,11.9-3.2,12.5C716.034,277.789,717.135,276.59,719.935,271.789z M296.135,273.289c3.5-2.398,5.3-5.1,2.7-4.1
		c-1.3,0.5-1.3,0.1-0.2-2.199c0.7-1.5,2.5-4.1,4-5.701c3.5-3.799,3.8-8.299,0.6-9.199c-1.3-0.301-4-0.6-6-0.6
		c-4.4,0-4.9-1.201-1.3-2.801c3.2-1.5,3.5-6.6,0.6-8.199c-1.1-0.5-6.7-1-12.5-1c-5.8,0-10.6-0.301-10.6-0.801
		c0-1.799,3.3-5.199,5.1-5.199c1,0,1.9-0.4,1.9-1c0-0.9-5.9-4.4-6.5-3.801c-0.2,0.201-1.3,4.1-2.6,8.801c-1.7,6.299-2.4,7.9-3,6.5
		c-0.5-1.4-0.8-0.301-0.8,3.199c-0.1,3.701-0.5,5.201-1.3,5c-2.2-0.4-2,4.9,0.3,9.5c3.8,7.6,9.9,12.801,15.1,12.801
		c1.8,0,1.3-0.5-2.1-2.201c-2.8-1.398-5.4-3.699-7.2-6.6c-4.4-7-6.2-13.699-3.1-11.799c0.5,0.299,2.9,3.799,5.2,7.699
		c5.4,8.9,7,10,15.5,10.9c0.6,0-0.1,0.699-1.5,1.5l-2.5,1.4l3.4,0.1C291.334,275.49,294.234,274.49,296.135,273.289z
		 M310.034,261.49c1.4,0,5.4-5.5,5.4-7.5c0-0.5-1.4-1.801-3-2.701c-2.3-1.299-3-2.398-3-4.799c0-6-1.5-2.801-1.6,3.5
		c-0.101,4.699-0.9,7.9-2.601,11.5l-2.399,4.9l2.899-2.5C307.335,262.59,309.234,261.49,310.034,261.49z M65.035,257.99
		c1.8-1.5,1.5-1.5-3.1-1c-8.9,1-14.6-3.701-18.2-15.1c-2.2-7-3.7-6.9-3.1,0c0.6,6.6,3.7,11.699,9.3,15.1
		C54.635,259.891,61.935,260.391,65.035,257.99z M154.234,237.689c-0.5-2.5-5.3,2.301-7.6,7.5c-2,4.9-2.6,7.801-2.2,12.301
		c0.1,1.799,1.5-0.4,5.1-7.9C152.234,243.789,154.334,238.49,154.234,237.689z M67.435,253.99c1.7-0.9,3-1.9,3-2.4
		c0-0.4,1.3-2.801,3-5.199c1.6-2.4,3-5.201,3-6.201c0-2-3.7-3.699-7.9-3.699c-4.1,0-4.3-0.9-0.9-3.9c5.5-4.9,0.9-8.301-6.3-4.6
		c-2.9,1.6-3.1,3.5-0.3,3.5c1.9,0,1.8,1.6-0.2,2.4c-0.9,0.299-4.2,0.6-7.4,0.6c-8.7,0-9.2,1.299-4.4,11.1c2.1,4.5,4.6,8.5,5.4,9
		C56.834,255.99,64.234,255.59,67.435,253.99z M78.935,243.49c1.6-3.1,2.1-9,0.7-9c-0.8,0-3.2,8.6-3.2,11.1
		C76.435,247.289,77.334,246.49,78.935,243.49z M267.435,236.391c3.9-18.201,22-23.901,33.8-10.5c2.8,3.199,6.2,11.6,6.2,15.299
		c0,0.701,0.5,1.301,1,1.301c0.6,0,1-0.5,1-1c0-0.6,0.8-0.5,1.9,0.199c1.6,1,2.3,0.9,4-0.6c3.1-2.801,3.399-5.1,1.699-11
		c-3.5-11.801-13.3-19.6-23-18.3c-15.6,2.2-27.8,12.8-30.1,26.5c-0.5,3.301-0.4,4.201,0.8,4.201
		C265.635,242.49,266.635,240.49,267.435,236.391z M299.835,236.59c0.3-0.5-3-3.6-7.5-6.9l-8-6l3-0.699c1.7-0.4,3.1-1.1,3.1-1.701
		c0-0.699-1.2-0.799-3.2-0.398c-1.8,0.398-4.8,1-6.5,1.299c-3.8,0.701-4.4,2.301-0.9,2.301c1.7,0,4.7,2.1,9.3,6.5
		C295.535,237.09,298.635,238.689,299.835,236.59z M459.335,229.289c-4.601-8.799-19.9-22.799-23.4-21.399c-1,0.3-3.6-0.9-6.8-3.3
		c-2.9-2.1-7-4.8-9.2-5.9c-6.6-3.2-28.9-10.1-38.1-11.7c-17.601-3.1-38.101-1.5-56.2,4.3c-9.9,3.2-34.1,14.2-34.2,15.6
		c0,0.5,4.7,0.6,10.8,0.3c8.7-0.4,12.7-1.2,21.2-4.1c17.7-6,25.9-6.9,48.8-5.7c21.7,1.2,38.5,4.1,52.3,8.8c6.5,2.3,8.5,3.4,8.7,5
		c0.2,1.4,2.4,3.1,6.8,5.4c3.601,1.8,9.301,5.9,12.7,9C459.435,231.789,461.234,232.789,459.335,229.289z M74.834,222.391
		c-0.5-0.9-13.7-7.901-14.9-7.901c-1.1,0-0.4,2.9,1.3,5c1.1,1.299,3.9,2.699,7.2,3.5C74.035,224.289,75.935,224.09,74.834,222.391z
		 M167.435,214.689c12-19.3,21.9-34,26-38.7c6.2-7.2,18.3-17.6,19-16.4c0.4,0.5,3.3-0.9,7.1-3.4c9.7-6.6,21.4-13.2,30.9-17.2
		c9.5-4.1,27.9-9.5,32.1-9.5c3.5,0,15-4.3,12.8-4.7c-0.8-0.2-7.8,1-15.4,2.7c-7.6,1.6-14.6,3-15.4,2.9c-3.4-0.2,28.7-7.8,33.2-7.8
		c2.7-0.1,8.3-1,12.5-2c4.3-1,9-2.2,10.601-2.5c1.699-0.4,2.5-1.1,2-1.6s-5.4,0-11.7,1.3c-9.101,1.8-11.5,1.9-16.1,1
		c-3.7-0.8-7.8-0.8-13.2-0.2c-10.5,1.3-11.3,1.7-3.1,1.8c3.7,0.1,6.7,0.5,6.7,1.1s-5.2,1-13.7,1c-14.5,0-17.1,1-5,1.9l7.2,0.6
		l-11,3.8c-6,2.1-16.4,6.4-23,9.7c-10,4.8-15.2,6.6-30.9,10.4c-10.3,2.5-22.1,5.7-26.2,7.1c-8.9,3-21.9,9.4-29.4,14.5
		c-7.1,4.9-15.8,13.1-14.4,13.7c0.7,0.2,4.9-1.2,9.5-3.1c9.7-4,39.1-10.8,42-9.8c1.7,0.7,1.1,1.8-5.7,10.7c-4.2,5.5-10,14.1-13,19.1
		c-5.8,9.9-11.7,22.4-10.6,22.4C161.635,223.49,164.435,219.59,167.435,214.689z M758.435,195.09c0-9.5-40.9-23.3-50.5-17
		c-3.9,2.5-2.1,4.1,5.7,4.8c3.899,0.4,10.3,1.6,14.3,2.6c8.5,2.2,18.8,7,16.5,7.8c-1.8,0.6,7.2,3.9,11.3,4.1
		C757.935,197.49,758.435,197.09,758.435,195.09z M93.535,192.59c10.1-2.2,21-4.5,24.1-5.1c4.1-0.8,6.1-1.8,7.2-3.6
		c0.9-1.3,2.4-3.6,3.3-5.1l1.7-2.6l-7.5,0.6c-4.1,0.4-11.5,1.8-16.4,3.2c-8.4,2.4-28.4,11.5-33,14.9c-2,1.5-2,1.5,0.1,1.6
		C74.234,196.49,83.435,194.69,93.535,192.59z M306.234,167.09c12-4.6,25-9.4,28.8-10.5c13.301-4,43.301-8.9,60.9-10.1
		c9.4-0.6,23.4-1.5,31.2-2c7.8-0.6,15.3-1,16.7-1c1.699,0,2.6-0.6,2.6-1.6c0-1.3-3.8-1.5-32.7-1.4c-32.8,0.2-32.8,0.2-51.3-3
		c-17.5-3.1-19.4-3.2-36-2.7c-9.6,0.3-30.5,1.5-46.5,2.7c-24.1,1.8-29.6,2.5-33,4.2c-7.9,4-31.4,19-34.1,22l-2.9,3l7.5-0.7
		c11.9-1.2,65-1.5,69.9-0.4c3.5,0.8,4.7,0.7,6.1-0.6c1.9-1.7,3.8-1.9,5.8-0.6c1,0.6-1.2,2.1-7.2,5.2c-7.3,3.7-10.3,5.9-8.1,5.9
		C284.234,175.49,294.334,171.69,306.234,167.09z M378.935,172.09c24.7-5.1,53.3-9.4,75.3-11.1c4.5-0.4,8.2-1.1,8.2-1.7
		c0-0.6-3.1-0.7-7.7-0.4c-4.3,0.3-11.8,0.8-16.8,1.1c-24.2,1.5-74.5,11.4-74.5,14.6c0,0.6,0.8,0.8,1.8,0.5
		C366.135,174.79,372.335,173.49,378.935,172.09z M616.234,171.09c6.8-0.8,12.601-1.7,12.9-2c1.5-1.5-1.3-1.7-9.9-0.7
		c-13.7,1.7-15.8,2.1-15.8,3.1c0,0.6,0.1,1,0.3,1C603.835,172.49,609.435,171.79,616.234,171.09z M704.435,166.09
		c0-0.9-2.7-2.2-7.2-3.5l-7.3-2.1l5.5,0.5c13.2,1.2-7.8-4.8-22.5-6.5c-12.1-1.3-44.5-1.3-44.5,0c0,0.7-0.7,0.7-1.7,0.2
		c-2.2-1-135.8,2-137,3.1c-1.8,1.9,3.101,2.5,16.601,2.1c8-0.3,38.899-1.1,68.6-1.7c58.6-1.3,88.9-1.2,88,0.3c-0.4,0.6-1.5,1-2.6,1
		c-3.7,0-1.9,1.9,2.399,2.4c2.3,0.3,9.601,1.3,16.2,2.1s14.3,1.9,17,2.4C703.335,167.69,704.435,167.59,704.435,166.09z
		 M143.535,164.79c1.3-1.6,1.2-1.7-0.3-0.4c-1,0.7-1.8,1.5-1.8,1.7C141.435,166.89,142.234,166.39,143.535,164.79z M150.535,158.79
		c1.3-1.6,1.2-1.7-0.3-0.4c-1,0.7-1.8,1.5-1.8,1.7C148.435,160.89,149.234,160.39,150.535,158.79z M646.234,158.79
		c-1-0.2-2.6-0.2-3.5,0c-1,0.3-0.2,0.5,1.7,0.5S647.135,159.09,646.234,158.79z M695.935,149.49c1-1.1,1.6-2.2,1.4-2.4
		c-0.2-0.2-2.801,0.1-5.601,0.7c-3.899,0.8-10.7,0.8-25.5-0.1c-24.1-1.5-30.8-1.5-30.8-0.3c0,1.2,6.3,1.9,28.5,2.9
		C694.034,151.79,693.935,151.79,695.935,149.49z M610.135,145.49c3.6-1.3,5.3-4.6,5.3-10.5c0-5.7-6.2-59.1-7.7-65.5
		c-0.5-2.3-0.6-2.4-1.3-0.5c-0.4,1.1,0.6,12.1,2.2,24.5c1.5,12.4,3.1,28.1,3.5,35c0.5,11,0.399,12.7-1.101,13.9
		c-1.399,1.2-7.399,1.3-35.199,0.8c-18.5-0.3-33.801-0.8-34-1c-0.301-0.2,0-1.6,0.5-3c1.6-4.3,1.6-15.6,0-17.2
		c-0.801-0.8-3.9-1.8-6.9-2.2l-5.5-0.8l-0.3-10.4l-0.3-10.4l4.3-4.1c5.7-5.4,9.8-6.5,25-6.7c10.6-0.1,13.399,0.3,17.1,1.9
		c6,2.6,9.101,7.5,11.601,18.1c1.1,4.6,2.199,8.6,2.5,8.8c0.3,0.3,3.399,0.2,6.899-0.1l6.4-0.7l-0.9-4.6c-0.7-3.2-0.7-5.8,0.101-8.4
		c0.8-2.5,0.8-4.5,0.1-6.3c-1.2-3.2-1.8-3.3-3-0.1s-3.4,3.4-2.4,0.3c0.301-1.3,1.4-3.6,2.301-5.3c1.699-3.1,2.3-19.1,0.8-22.7
		c-0.601-1.6-2.5-1.8-20.9-1.8c-11.3,0-25.6,0.7-32.3,1.5c-18.3,2.2-17.5,2.3-17.5-3c0-2.5-0.4-4.5-1-4.5s-1,10.3-1,29v29h-8.4
		c-7.5,0-8.8,0.3-11.3,2.4c-1.5,1.3-3.6,3.8-4.6,5.4c-2.101,3.7-3.601,3.2,18.3,6.7c9.1,1.4,17.3,2.9,18.3,3.3
		c1.8,0.7,1.8,0.8,0,3.1l-2,2.4l-15.3-5.1c-18.1-6.1-21.6-5.6-8.4,1.2l8.9,4.5l-12,0.1c-9.9,0-11.6,0.3-10,1.3
		c1.4,0.9,13.4,1.3,43.5,1.7c22.8,0.3,46.3,0.6,52.1,0.8C602.335,146.39,608.534,145.99,610.135,145.49z M693.335,143.99
		c3.399-1.7,5.1-6,5.1-12.4c0-8-1.7-8-2.5,0c-1.2,11.9-1.6,12.2-16,11c-4.9-0.5-7.4-0.9-5.4-1c3.4-0.1,3.801-0.5,5.801-5.3
		c1.199-2.8,1.899-5.3,1.6-5.6c-0.2-0.3-4.2-1.6-8.7-2.9c-15.899-4.6-47.8-8.9-47.8-6.4c0,0.6,1.4,5.3,3,10.5
		c2.6,8,3.4,9.5,5.8,10.5c1.5,0.6,12.2,1.5,23.7,1.9C689.635,145.59,690.234,145.59,693.335,143.99z M599.234,138.89
		c2-1.3,2.2-2.2,2.2-10v-8.6l-3.1,0.6c-1.7,0.3-4.2,0.6-5.5,0.6c-2.9,0-5.4,2.5-5.4,5.3c0,5-2.2,9.8-5.2,11.7l-3.1,1.9l4.399,0.4
		C589.835,141.39,596.534,140.59,599.234,138.89z M467.034,125.59c5.2-2.4,7.301-6.5,11.301-22.6c8-32.3,9.1-44.1,5-52.2
		c-4.2-8.1-14.4-13.5-27.9-14.7c-3-0.3-13.8-1.5-24-2.7c-34.2-4.2-88.1-2.9-114.5,2.6c-14.6,3.1-25,10.4-35.4,24.8
		c-8.3,11.6-13.4,20.2-21.3,35.8c-12.4,24.7-11.9,25.1,19.5,20.5c12.1-1.7,16.2-2.7,18-4.3c1.3-1.1,7.4-3.3,14.4-5.1
		c12.7-3.3,17.5-4,11.2-1.7c-2,0.7-5.601,2.6-8,4.1l-4.4,2.9l33.4,0.3c18.399,0.1,33.6,0,33.8-0.2c0.3-0.2,0.3-1.9,0.1-3.8
		l-0.399-3.3l-1.2,2.8c-1,2.5-1.601,2.7-6.4,2.7c-5.6,0-12.8-1.6-12.8-2.8c0-0.4-4.2-0.4-9.2,0c-5.1,0.3-12.899,0.6-17.3,0.6h-8
		l4.5-1.5c2.9-0.9,8.4-1.4,15.7-1.3c11.8,0.1,16.3-0.6,16.3-2.2c0-0.7-3.2-0.8-9-0.3c-6.2,0.5-9,0.4-9-0.4c0-0.6,3.5-1.1,9.2-1.3
		l9.2-0.3l5.3-22.9c4.899-20.9,5.3-23.1,3.8-24.5c-1.3-1.4-4.6-1.6-21.8-1.6c-20.3,0-32.5,1.4-37.9,4.1c-3.1,1.6-3.5,2.6-11.4,32.6
		c-3.9,14.4-6.1,21.3-6.7,20.3c-0.5-0.9,1.5-10.1,5.4-24.5c3.4-12.7,5.9-23.3,5.6-23.7c-1-0.9-11.1,4.3-15.1,7.7
		c-5.2,4.6-8.1,9.1-18.6,28.7c-10,18.8-11.6,20.9-12.5,17c-0.9-3.4,3.9-13.4,17.6-37.3c9.6-16.7,12-20.2,18.3-26.2
		c4-3.8,9.8-8.1,12.8-9.5c19.8-9.4,96-12.2,141.8-5.2c25.3,3.9,33.5,7.9,35.5,17.1c0.6,2.8,0.6,2.8-1.1-0.4
		c-2-3.8-6.801-8.2-9.2-8.3c-0.9,0-2.601-0.2-3.7-0.5c-5.7-1.2-60.3-8.4-63.7-8.4c-3.6,0-4.1,0.4-7.1,5.2c-2.7,4.3-3.3,4.8-3.5,3
		c-0.5-3.2-1.7-2.7-3.601,1.6c-2.199,4.8-2.1,5.7,0.601,5.9c7.899,0.5,27.6,5.9,39.8,11c10.9,4.4,23.4,12.8,29.8,19.7
		c2.7,3,7,9.6,9.601,14.6c4.199,8.5,4.5,9.4,3.199,11.8c-0.699,1.5-1.6,4.3-2,6.3c-1.399,8-7.199,11.1-12.6,6.9
		c-3-2.4-3.9-2.5-5.4-0.5c-1.6,2.3-11.399,0.3-14.1-2.8c-1.8-2-2.4-2.2-4.8-1.2c-2.2,0.9-6.2,0.6-19.5-1.6
		c-15.101-2.4-18.4-2.7-17.101-1.5c0.7,0.7,59.2,12.4,62.4,12.5C461.635,127.39,464.734,126.59,467.034,125.59z M688.435,124.29
		c0-0.6,0.7-2,1.6-3c1.601-1.6,1.5-2.3-1.6-9c-4.6-10.4-10.8-19.3-18.7-26.9c-11.399-11-22.399-17.6-38-22.9c-9.399-3.2-8.1-4,2-1.4
		c7.4,1.9,15.9,5.7,25.2,11.3l7,4.2l-4-3.6c-7.5-6.8-30.4-16.5-38.9-16.5c-1.6,0-3.8,0.7-4.8,1.7c-2.2,2-2.399,0.5-0.2-2.6
		c1.5-2,2.101-2.2,6.801-1.6c17.1,2.3,35.5,11.6,48.8,24.6c3.3,3.3,6.2,5.8,6.5,5.6c0.899-1-8.601-11.3-14.9-16.2
		c-14.399-11.3-34-18.7-48.7-18.3c-4.199,0.1-5.899,0.3-3.8,0.5c4,0.5,4.3,1.2,2.601,6.3c-0.801,2.1-0.801,3.4-0.2,3.9
		c0.6,0.3,1.3,2.6,1.5,5.1s2.399,15.2,4.8,28.2l4.4,23.7h12.5c13.5-0.1,26.399,1.7,40.199,5.5
		C688.935,125.79,688.435,125.69,688.435,124.29z M466.635,116.89c0.399-2.1,1-4.9,1.3-6.2c0.6-2.3,0.5-2.3-5.7-1.6
		c-7.2,0.7-8.3,1.4-7.3,4.4c0.7,2.4,8.3,8.2,9.9,7.7C465.435,120.99,466.234,119.09,466.635,116.89z M511.435,115.09
		c0-3.3,2.8-6.6,5.6-6.6c1.301,0,2.4-0.5,2.4-1.1s-2.2-5.4-5-10.7c-2.9-5.5-5-10.9-5-12.7c0-3.1,4.3-9.5,6.3-9.5
		c0.601,0,0.101,0.9-1.1,2c-3.601,3.4-2.9,8.1,3,19.7c3.3,6.4,5.6,9.9,6.2,9.3c1.199-1.2,2.1-22.4,1.199-28.4
		c-0.5-2.9-1.199-4.6-2.1-4.6c-1,0-0.6-1.3,1.2-4.6c1.399-2.5,2.399-4.7,2.1-4.9c-1-1.1-12.7,4.9-15.5,7.9s-3.1,3.9-2.3,6
		c0.6,1.7,0.6,2.7-0.1,3.2c-0.601,0.3-1.5,1.8-2,3.2c-1.301,3.3-8.9,29.4-8.9,30.5c0,0.5,0.9,0.6,1.9,0.2c1.1-0.3,2.199-0.1,2.6,0.6
		c1,1.6,6.6,3.8,8.2,3.2C510.835,117.49,511.435,116.29,511.435,115.09z M389.234,110.39c3.9-1.3,4.2-2.4,3.8-12.4
		c-0.3-6.7-0.899-9.2-3.899-15.5c-4.3-9-5.2-8.1-4.5,4.6c0.399,7.4,0.3,8.2-0.8,6.2c-1.2-2-1.301-1.4-1.4,5.7c0,4.4-0.3,9-0.6,10.3
		c-0.5,1.8-0.2,2.2,1.8,2.2C385.034,111.49,387.534,110.99,389.234,110.39z M466.034,100.19c-3-10.1-11.399-19.7-24.6-28.3
		c-10.1-6.5-25.1-12.4-31.8-12.4c-2.101,0-2.3,0.3-1.7,2.9c0.9,4.3-1.7,6.5-6.9,5.8c-2.5-0.4-5.1-0.1-6.5,0.8
		c-1.899,0.9-3.1,1-4.8,0.2c-1.3-0.6-2.6-0.7-2.899-0.4c-0.601,0.6,5.6,19.7,7.8,24c0.899,1.7,1.3,1.5,5.2-2.1
		c7-6.4,11.5-7.6,26.199-6.8c6.9,0.3,14,1.2,15.801,2c4.3,1.8,8.1,6.5,10.1,12.6c0.9,2.7,2.2,5.3,2.8,5.7c1.601,1,11,2,12,1.3
		C467.135,105.19,466.835,102.79,466.034,100.19z M383.034,84.29c-0.3-1.3-0.6-3.4-0.699-4.8c0-2.4-0.101-2.4-1.601,0.7
		c-1.8,3.5-1.2,6.3,1.3,6.3C383.234,86.49,383.534,85.89,383.034,84.29z M609.335,54.09c-0.801-2.8-1.801-4.1-4.2-5.1
		c-4-1.6-44.7-3.2-44.7-1.8c0,1.2,10.3,2.3,20.8,2.3c5.2,0,8.3,0.5,10.3,1.7c2.4,1.5,3.4,1.5,6.301,0.5c4.199-1.5,5.8-0.9,9.1,3.5
		c1.5,1.9,2.9,3.3,3.1,3.1C610.234,58.09,609.935,56.19,609.335,54.09z M628.935,44.99c-1.6-0.8-5.3-1.9-8.2-2.6
		c-3.399-0.8-5-1.6-4.6-2.5c0.7-2-2.5-3.2-19.9-7.4c-33.8-8.1-50.1-10.5-79.1-12c-20.3-1-34.2-0.6-111.7,3.5
		c-49.5,2.6-63.1,3.7-74,5.9c-9.3,1.9-3.4,1.9,12.2-0.1c10.1-1.3,21.3-1.7,46.3-1.7c45.8,0,69.7,2.8,86.7,10
		c5.6,2.4,7.899,2.8,19.899,3.2c13.101,0.4,13.601,0.5,13.101,2.4c-0.5,1.9-0.101,2,6.899,1.4c29.9-2.6,65.301-2.5,98.4,0.3
		c5.5,0.4,11.6,0.8,13.5,0.9h3.5L628.935,44.99z M393.435,38.39c0-2-0.4-2.1-4.6-1.5c-2.601,0.3-5.5,0.6-6.5,0.6
		c-1.101,0-1.9,0.7-1.9,1.5c0,1.2,1.4,1.5,6.5,1.5C392.935,40.49,393.435,40.29,393.435,38.39z"/>
	<path d="M404.234,381.789c1.2-0.199,3-0.199,4,0c0.9,0.301-0.1,0.5-2.3,0.4C403.734,382.189,402.935,381.99,404.234,381.789z"/>
	<path d="M412.135,380.391c0.7-0.701,1.5-1,1.8-0.701c0.3,0.301-0.2,0.9-1.2,1.201C411.335,381.49,411.234,381.391,412.135,380.391z
		"/>
	<path d="M279.834,265.99c-0.8-2,0.6-4.1,1.6-2.5c0.6,1,1.9,0.6,5.5-1.4c6.5-3.9,8.3-1.9,2.2,2.301
		C284.234,267.689,280.734,268.391,279.834,265.99z"/>
	<path d="M270.435,247.49v-3h7.8c6.3,0,8.2,0.4,9.4,1.799c3.6,4.102,3.4,4.201-7.1,4.201h-10.1V247.49z"/>
	<path d="M55.035,249.689c-0.6-1,6.5-3.4,7.3-2.6c0.9,0.801-3,3.4-5,3.4C56.334,250.49,55.334,250.09,55.035,249.689z"/>
	<path d="M686.234,159.79c0.601-0.2,1.8-0.2,2.5,0c0.601,0.3,0.101,0.5-1.3,0.5S685.534,160.09,686.234,159.79z"/>
	<path d="M677.734,158.79c0.9-0.2,2.5-0.2,3.5,0c0.9,0.3,0.101,0.5-1.8,0.5S676.734,159.09,677.734,158.79z"/>
	<path d="M173.234,288.789c0.6-0.199,1.8-0.199,2.5,0c0.6,0.301,0.1,0.5-1.3,0.5S172.535,289.09,173.234,288.789z"/>
</g>
</svg>
