<!DOCTYPE svg PUBLIC "-//W3C//DTD SVG 20010904//EN" "http://www.w3.org/TR/2001/REC-SVG-20010904/DTD/svg10.dtd">
<svg version="1.0" xmlns="http://www.w3.org/2000/svg" width="804px" height="428px" viewBox="0 0 8040 4280" preserveAspectRatio="xMidYMid meet">
<g id="layerbg1" fill="#ffffff" stroke="none">
 <path d="M0 2140 l0 -2140 4020 0 4020 0 0 2140 0 2140 -4020 0 -4020 0 0 -2140z m3552 1955 c282 -17 553 -42 624 -56 28 -5 74 -25 103 -43 33 -22 70 -36 104 -40 28 -4 288 -43 577 -86 1050 -159 1656 -238 2047 -269 287 -22 367 -32 388 -45 39 -25 111 -123 149 -201 45 -93 71 -179 92 -311 10 -60 22 -114 26 -120 4 -6 45 -14 90 -17 100 -8 118 -23 118 -98 0 -43 3 -51 24 -59 35 -13 46 -40 43 -108 -2 -56 -4 -61 -26 -64 -13 -2 -33 -15 -44 -29 -26 -35 -64 -223 -77 -373 -12 -141 -15 -156 -40 -156 -29 0 -72 -43 -72 -71 0 -15 -9 -31 -23 -40 -13 -8 -54 -40 -91 -73 -83 -71 -185 -122 -278 -138 l-69 -13 -23 -70 c-188 -588 -257 -736 -407 -886 -72 -71 -293 -248 -387 -308 -291 -189 -771 -301 -1418 -331 -535 -25 -1010 2 -1392 80 -135 28 -318 77 -240 65 121 -19 752 -57 1402 -85 356 -15 673 7 956 64 269 55 425 98 450 123 13 13 53 33 88 44 63 20 83 33 65 44 -6 3 -68 1 -138 -5 -366 -29 -706 -31 -1011 -4 -68 5 -74 4 -79 -14 -4 -18 -15 -20 -131 -24 -110 -4 -136 -8 -190 -32 -157 -67 -387 -96 -807 -101 l-290 -3 230 8 c127 5 313 18 415 30 102 12 210 23 240 26 225 20 337 142 310 335 -27 189 -101 479 -135 530 -16 25 -39 43 -71 55 l-47 18 -319 -63 c-175 -35 -321 -68 -324 -73 -15 -24 23 -24 178 1 137 22 173 25 195 15 25 -10 30 -9 48 12 26 32 125 52 138 29 11 -20 27 -19 57 5 54 42 101 17 116 -61 4 -18 13 -46 20 -61 13 -24 10 -33 -33 -120 -34 -66 -64 -110 -107 -154 -57 -56 -211 -162 -222 -152 -2 3 23 22 56 42 79 49 170 134 210 196 38 60 65 139 50 154 -6 6 -4 13 5 20 11 9 12 21 3 66 -16 82 -28 91 -80 54 -83 -58 -87 -114 -9 -114 20 0 43 -5 51 -10 11 -7 3 -10 -30 -10 -60 0 -85 -19 -105 -79 -21 -63 -49 -100 -91 -117 -18 -8 -90 -17 -161 -20 -118 -6 -132 -5 -179 15 -28 12 -66 38 -84 56 -18 19 -37 32 -42 29 -9 -6 -13 31 -9 83 1 18 -3 41 -9 52 -11 22 -69 44 -102 39 -22 -3 -23 -6 -20 -103 2 -55 8 -104 13 -110 15 -15 10 -32 -11 -38 -11 -3 -23 -13 -26 -22 -8 -20 22 -89 35 -81 5 3 14 -1 21 -9 7 -8 16 -12 21 -10 4 3 3 -8 -3 -25 -14 -41 1 -58 35 -43 17 8 29 7 48 -2 14 -8 40 -12 64 -8 48 6 65 -9 62 -52 -2 -25 2 -30 28 -35 27 -5 23 -7 -35 -22 -71 -18 -137 -32 -160 -32 -37 -2 -40 -16 -15 -67 l25 -49 -55 0 c-41 0 -57 -4 -62 -16 -9 -25 8 -33 77 -36 l65 -3 1 30 c1 17 2 34 3 39 0 5 15 -10 31 -32 26 -37 35 -42 69 -42 32 0 538 67 651 86 51 9 31 -5 -31 -22 -185 -50 -475 -77 -809 -77 -281 0 -440 11 -634 44 -148 25 -208 52 -296 136 -58 54 -85 93 -179 256 -149 260 -202 377 -172 377 5 0 50 -77 101 -172 50 -94 104 -190 120 -213 41 -60 105 -114 168 -143 51 -23 56 -24 67 -8 11 15 13 14 19 -9 16 -64 138 -90 428 -90 187 0 199 1 218 21 l21 21 -51 219 c-28 120 -54 226 -57 234 -3 8 -7 21 -7 28 -1 7 -7 16 -14 21 -26 16 17 34 91 39 67 4 73 3 82 -18 15 -34 30 -25 30 18 l0 37 -284 3 c-241 2 -281 4 -272 16 8 10 9 16 1 21 -18 11 -210 55 -241 55 -17 0 -28 5 -27 12 4 15 -97 57 -138 58 -33 0 -237 55 -263 70 -11 6 4 8 44 4 242 -20 488 -35 645 -41 178 -5 192 -4 370 27 185 32 185 32 513 30 293 -1 328 1 333 15 4 9 3 20 -2 25 -5 4 -90 13 -189 19 -441 28 -497 34 -675 67 -228 42 -268 54 -542 160 -121 47 -223 82 -229 79 -20 -13 -6 -27 74 -67 54 -28 76 -43 64 -46 -10 -2 -27 4 -36 12 -15 14 -26 15 -62 7 -49 -11 -599 -7 -691 4 -32 4 -65 4 -74 1 -15 -6 -14 -10 9 -34 24 -25 25 -28 7 -29 -21 -2 -119 81 -183 155 -39 46 -123 170 -254 380 -62 97 -72 109 -86 96 -18 -18 125 -272 233 -413 39 -51 68 -97 63 -102 -14 -14 -309 56 -411 97 -71 29 -95 35 -104 26 -25 -25 137 -154 289 -231 108 -54 192 -81 419 -137 154 -37 209 -56 299 -100 61 -30 153 -70 205 -89 72 -26 87 -34 63 -35 -42 0 -86 -17 -78 -30 3 -5 38 -10 76 -10 43 0 68 -4 64 -10 -3 -5 -38 -7 -85 -3 -69 5 -83 3 -100 -12 -11 -10 -20 -27 -20 -38 0 -48 142 -324 248 -480 92 -136 99 -147 63 -107 -53 60 -393 612 -420 683 -8 21 -24 26 -148 52 -293 59 -400 91 -533 157 -69 35 -132 63 -141 64 -25 2 -70 36 -65 50 5 14 -27 47 -37 37 -4 -3 -1 -13 5 -22 7 -9 0 -5 -15 9 -15 13 -26 29 -23 36 5 14 -28 47 -37 37 -4 -3 1 -16 10 -27 10 -12 -8 3 -39 32 -51 46 -62 52 -101 52 -123 0 -327 57 -468 132 -79 42 -243 157 -236 165 3 2 33 -1 66 -8 78 -15 127 -7 163 28 68 64 87 153 45 213 -12 19 -26 33 -32 33 -5 0 -26 -30 -46 -68 -66 -127 -126 -167 -213 -144 -55 15 -95 61 -130 150 -33 85 -155 472 -151 477 9 10 1487 94 2410 137 182 8 360 20 397 25 37 6 107 10 157 10 95 0 145 12 139 33 -3 8 -45 13 -144 17 -137 5 -829 -4 -1034 -14 l-105 -4 70 13 c39 7 142 18 230 25 168 13 211 22 199 41 -8 13 -52 12 -834 -26 -606 -30 -921 -52 -934 -65 -20 -20 47 -32 149 -26 55 4 114 2 130 -2 27 -8 23 -10 -35 -15 -36 -4 -148 -12 -250 -17 -233 -14 -396 -34 -530 -65 -58 -14 -123 -26 -145 -28 l-40 -2 -8 75 c-11 100 -2 123 59 144 58 20 98 13 84 -14 -15 -27 2 -33 65 -21 73 14 80 19 59 42 -17 18 -16 19 21 19 33 0 36 -2 25 -15 -22 -27 1 -34 80 -25 47 5 79 5 87 -1 7 -7 187 0 520 20 279 17 728 42 996 56 268 13 492 27 498 30 5 4 7 11 4 16 -4 5 -3 9 2 9 4 0 49 5 98 10 50 5 147 7 216 4 107 -6 126 -9 125 -23 -1 -13 15 -17 84 -24 130 -12 255 -6 255 13 0 11 -14 16 -54 18 l-53 3 23 25 c16 17 20 27 12 35 -5 5 -73 12 -149 16 -201 8 -1289 -32 -1829 -68 -346 -23 -723 -44 -917 -52 l-67 -3 52 36 c86 59 92 68 106 155 43 275 132 439 284 525 85 48 83 50 -71 84 -60 13 -115 27 -121 30 -11 7 -16 66 -6 66 3 0 49 11 102 25 120 32 414 81 566 95 62 6 202 22 312 35 213 26 381 38 805 55 146 6 292 12 325 13 194 9 652 5 857 -8z m-432 -2974 l85 -19 -50 -3 c-27 -2 -50 -8 -50 -14 0 -5 16 -20 35 -33 19 -13 26 -22 15 -19 -11 4 -51 14 -90 23 -38 10 -83 28 -98 41 -16 12 -36 23 -45 24 -31 2 32 17 73 18 22 0 78 -8 125 -18z m288 -87 c-4 -3 -27 -6 -53 -6 -26 0 -49 3 -52 6 -4 3 20 6 52 6 32 0 56 -3 53 -6z m-180 -740 c49 -6 51 -8 30 -19 -19 -10 -32 -8 -73 7 -56 22 -73 34 -35 25 14 -3 49 -9 78 -13z"/>
 <path d="M3984 3807 c-11 -7 -40 -29 -64 -49 l-43 -37 27 -11 c15 -5 39 -10 54 -10 17 0 52 -20 97 -55 67 -52 99 -59 76 -18 -7 14 -7 23 1 31 9 9 5 20 -18 44 l-29 32 30 -19 c17 -10 40 -25 53 -34 38 -27 108 -142 143 -236 18 -49 37 -96 42 -102 15 -21 29 -3 23 29 -3 16 0 37 6 47 9 15 6 34 -17 96 -47 131 -131 237 -227 286 -42 22 -122 25 -154 6z"/>
 <path d="M1407 3694 c-3 -4 22 -34 56 -68 34 -33 88 -100 120 -148 32 -48 65 -92 75 -97 12 -6 52 -5 118 4 54 7 189 19 299 25 110 6 243 20 295 30 52 11 181 25 285 31 105 7 205 18 224 24 37 12 51 32 29 40 -13 5 -1450 165 -1479 165 -9 0 -18 -3 -22 -6z"/>
 <path d="M4137 3594 c-3 -3 1 -17 10 -31 l17 -25 -35 21 c-117 72 -242 -41 -265 -239 -5 -42 -3 -64 6 -75 16 -19 35 -5 45 33 14 58 31 72 90 72 l54 0 -6 -49 c-7 -62 9 -73 39 -27 26 41 49 45 95 16 42 -25 51 -9 18 33 l-25 34 21 27 c17 21 19 32 11 54 -8 23 -7 28 8 29 10 1 22 -9 29 -23 15 -33 35 -20 27 18 -10 51 -38 98 -65 112 -38 19 -67 27 -74 20z"/>
 <path d="M6757 3410 c-31 -11 -90 -26 -130 -34 -106 -22 -642 -66 -805 -66 -106 0 -142 -3 -151 -14 -8 -10 -8 -16 1 -23 13 -10 516 -74 578 -73 28 0 201 41 282 66 13 4 24 -8 43 -45 39 -77 67 -86 152 -47 l52 24 31 104 c18 57 33 107 34 112 2 17 -27 15 -87 -4z"/>
 <path d="M7346 3373 c-12 -12 -6 -22 30 -44 30 -18 34 -23 20 -31 -15 -8 -15 -12 2 -36 11 -15 34 -55 51 -90 29 -58 55 -77 57 -41 0 8 4 22 8 31 12 27 -12 83 -59 135 -45 50 -98 87 -109 76z"/>
 <path d="M4954 3309 c-3 -6 -2 -14 2 -18 14 -12 1567 -176 1588 -168 13 5 16 11 9 18 -8 8 -1503 179 -1570 179 -12 0 -25 -5 -29 -11z"/>
 <path d="M3767 3253 c-9 -8 -7 -127 2 -168 5 -22 12 -29 25 -27 25 4 43 -13 57 -56 11 -34 10 -37 -16 -58 l-29 -23 27 -38 c15 -21 41 -54 57 -73 l30 -35 21 28 c28 37 53 34 78 -8 25 -44 49 -45 96 -4 27 24 33 35 25 44 -8 10 -6 15 8 19 11 4 27 14 35 24 15 17 13 22 -29 76 -43 54 -47 57 -77 50 -18 -5 -48 -8 -67 -9 -33 0 -37 4 -69 63 -24 46 -36 61 -44 53 -12 -12 14 -107 42 -151 15 -23 15 -24 -1 -11 -25 19 -64 103 -93 200 -13 46 -30 90 -36 97 -12 15 -31 18 -42 7z"/>
 <path d="M7282 3173 c-42 -20 -80 -85 -84 -143 -4 -62 13 -62 36 0 17 47 21 51 44 45 16 -4 31 0 44 12 22 20 17 23 83 -61 15 -19 28 -27 39 -23 23 9 20 18 -19 70 -19 25 -35 52 -35 59 0 25 -31 58 -53 58 -12 0 -37 -8 -55 -17z"/>
 <path d="M4086 3143 c-15 -15 -4 -53 21 -73 20 -15 34 -19 57 -14 39 8 50 18 34 31 -33 25 -106 62 -112 56z"/>
 <path d="M3031 2947 c-6 -8 -8 -17 -4 -20 8 -9 338 -9 346 0 4 3 2 12 -4 20 -16 19 -322 19 -338 0z"/>
 <path d="M735 2850 c-26 -3 -40 -10 -40 -20 0 -11 10 -14 40 -12 22 2 44 8 50 13 16 16 -8 25 -50 19z"/>
 <path d="M585 2831 c-7 -13 17 -24 40 -19 9 1 16 8 16 13 0 14 -48 19 -56 6z"/>
 <path d="M7195 2821 c-3 -6 2 -38 11 -72 21 -75 83 -149 128 -152 41 -3 43 17 2 41 -41 24 -60 51 -91 129 -24 58 -38 73 -50 54z"/>
 <path d="M7143 2729 c-12 -12 18 -131 34 -136 5 -2 20 5 33 15 l23 19 -27 45 c-33 57 -49 71 -63 57z"/>
 <path d="M2859 2715 c-1 -3 -2 -10 -3 -17 0 -6 -7 -13 -15 -16 -8 -3 -11 0 -7 7 10 15 -18 25 -49 17 -38 -10 -103 -73 -131 -128 -28 -54 -31 -90 -9 -108 8 -7 15 -27 15 -45 0 -25 -5 -34 -21 -38 -19 -5 -20 -10 -14 -49 24 -140 157 -256 316 -275 95 -11 199 73 234 189 20 68 19 71 -11 108 -20 23 -33 30 -48 26 -20 -5 -22 -2 -18 30 3 26 11 38 33 50 16 8 29 20 29 27 0 26 -41 77 -72 90 -18 8 -39 21 -47 30 -21 26 -33 9 -15 -21 l16 -27 -26 29 c-19 19 -24 32 -17 40 13 15 3 30 -39 61 -30 22 -97 35 -101 20z m-61 -55 c-14 -10 -45 -51 -68 -90 -23 -39 -45 -68 -48 -66 -12 13 60 135 91 155 41 26 58 27 25 1z m82 -66 c54 -36 43 -43 -14 -9 -25 15 -50 24 -56 20 -5 -3 -10 -1 -10 4 0 19 40 12 80 -15z m185 -182 c-12 -129 -51 -204 -126 -242 -32 -17 -37 -17 -32 -4 4 10 -1 17 -16 21 -11 3 -21 8 -21 12 0 4 32 30 71 59 58 44 68 56 58 68 -20 24 -39 16 -112 -51 -43 -39 -80 -65 -94 -65 -12 0 -26 -7 -31 -16 -8 -14 -13 -11 -36 19 -32 41 -62 145 -48 159 6 6 16 -17 27 -61 9 -39 21 -74 26 -77 14 -8 74 30 74 47 0 8 -10 15 -23 17 -12 2 -27 12 -32 23 -10 18 -6 19 92 19 119 0 148 12 148 60 0 18 -8 34 -22 44 -22 16 -22 16 12 17 19 0 44 4 55 8 31 13 36 4 30 -57z m-185 30 c0 -22 -29 -32 -97 -32 -66 0 -73 2 -73 20 0 18 7 20 85 20 47 0 85 -4 85 -8z"/>
 <path d="M494 2535 c-63 -38 -99 -96 -99 -163 0 -35 4 -57 12 -59 7 -3 15 1 18 9 32 93 51 133 71 156 20 22 16 10 -18 -60 -41 -85 -42 -87 -23 -108 15 -16 30 -20 83 -20 64 0 65 0 47 -19 -17 -19 -16 -21 16 -41 39 -24 87 -23 103 2 8 14 5 23 -19 48 l-29 30 30 0 c16 0 41 6 56 14 25 13 27 13 30 -7 5 -37 33 -26 36 13 3 46 -32 107 -53 90 -11 -9 -18 -4 -34 29 -12 22 -30 45 -41 51 -11 6 -18 15 -15 20 10 16 -39 40 -85 40 -30 0 -59 -8 -86 -25z"/>
 <path d="M1434 2549 c-13 -21 -5 -88 17 -138 31 -73 99 -125 99 -76 0 15 -97 225 -104 225 -3 0 -8 -5 -12 -11z"/>
 <path d="M4524 2222 c-34 -31 -92 -73 -130 -93 -46 -24 -70 -42 -72 -56 -2 -16 -23 -27 -100 -51 -146 -47 -296 -72 -509 -83 -224 -12 -308 -2 -483 58 -93 31 -117 35 -215 37 -83 1 -110 -2 -110 -12 0 -16 247 -133 353 -166 179 -56 383 -71 556 -41 92 16 315 85 381 117 22 11 63 37 91 59 32 23 59 36 70 33 30 -7 165 105 213 177 36 54 44 80 23 79 -4 -1 -35 -27 -68 -58z"/>
 <path d="M680 2195 c-70 -17 -126 -78 -90 -100 11 -7 141 57 158 78 22 26 -7 36 -68 22z"/>
 <path d="M7475 1920 c-27 -9 -49 -22 -48 -29 7 -28 -163 -83 -296 -97 -54 -5 -74 -11 -81 -25 -8 -14 -4 -22 19 -38 78 -56 350 10 479 116 34 28 42 41 40 62 -2 21 -8 26 -33 27 -16 1 -52 -6 -80 -16z"/>
 <path d="M705 1920 c-13 -21 218 -137 350 -175 98 -28 229 -44 238 -28 3 5 -9 33 -28 61 -32 47 -39 51 -92 62 -32 6 -141 29 -242 51 -197 42 -217 44 -226 29z"/>
 <path d="M3624 1709 c-12 -21 24 -37 155 -68 254 -60 513 -97 731 -103 97 -2 115 -1 115 12 0 16 -5 17 -240 40 -177 17 -631 95 -737 126 -9 3 -20 -1 -24 -7z"/>
 <path d="M6024 1679 c-13 -21 16 -31 136 -46 88 -10 126 -11 133 -4 26 26 5 31 -260 61 -1 0 -5 -5 -9 -11z"/>
 <path d="M6922 1624 c-46 -8 -140 -21 -208 -29 -134 -15 -148 -19 -140 -41 4 -11 -6 -14 -44 -14 -27 0 -52 5 -55 10 -8 12 -58 13 -71 1 -5 -5 -34 -11 -64 -13 -49 -4 -895 13 -1282 26 -113 3 -150 1 -165 -9 -48 -36 -15 -39 680 -56 781 -19 1148 -18 1252 4 103 22 180 51 177 65 -1 7 9 17 24 22 30 12 30 44 -1 47 -11 1 -58 -5 -103 -13z"/>
 <path d="M6630 1468 c-229 -10 -285 -18 -285 -38 0 -12 19 -16 90 -21 l90 -5 -83 -2 c-123 -3 -134 -11 -172 -129 -17 -53 -28 -103 -25 -111 4 -12 20 -14 93 -8 171 14 454 74 483 103 6 6 2 27 -11 58 -11 26 -19 50 -16 52 2 3 32 5 65 6 43 1 64 -2 70 -12 5 -8 12 -47 16 -87 7 -78 17 -97 34 -65 15 28 13 106 -3 146 -25 59 -51 66 -253 61 -136 -3 -157 -3 -88 4 129 11 255 12 295 0 47 -14 61 2 30 35 -27 28 -13 28 -330 13z"/>
 <path d="M5440 1420 c-314 -4 -421 -8 -438 -18 -39 -23 -14 -32 86 -32 l97 -1 -69 -37 c-38 -20 -69 -41 -68 -47 0 -5 -10 -16 -24 -23 -25 -13 -25 -14 -8 -40 9 -15 28 -39 42 -54 19 -21 22 -28 10 -28 -8 0 -27 -9 -41 -20 -14 -11 -32 -17 -40 -14 -30 11 -27 -18 12 -153 45 -159 56 -189 70 -197 7 -5 7 -15 0 -32 -8 -23 -5 -31 33 -69 25 -24 65 -50 93 -60 28 -10 58 -25 67 -33 24 -20 38 -7 38 39 0 46 -8 45 165 24 67 -8 210 -15 321 -15 170 0 204 2 214 15 9 11 14 50 14 113 1 78 -3 104 -18 132 -14 26 -15 32 -4 22 22 -18 43 10 39 54 -5 69 -5 110 -1 139 l5 30 -68 9 c-44 6 -71 6 -78 -1 -5 -5 -19 -47 -30 -93 -39 -166 -78 -192 -277 -191 -149 2 -192 13 -244 62 l-38 36 0 100 0 100 52 6 c75 9 91 29 89 112 -1 36 -6 76 -11 89 l-8 23 135 6 c141 7 348 7 278 0 -54 -6 -63 -18 -27 -37 31 -16 52 -62 52 -113 0 -36 32 -59 90 -66 29 -4 57 -4 61 -1 5 3 9 42 9 88 0 93 -11 111 -72 126 -23 6 -3 8 62 7 l95 -2 -2 -130 c-1 -71 -15 -231 -31 -355 -29 -222 -29 -291 0 -262 13 13 17 41 58 385 34 281 36 327 15 366 -20 40 -62 51 -184 49 -58 -2 -293 -5 -521 -8z m-52 -81 c3 -15 -19 -20 -193 -45 -16 -2 13 11 65 30 102 37 123 40 128 15z m-129 -296 c-1 -49 -4 -76 -6 -61 -2 14 -10 32 -18 38 -10 9 -24 -9 -65 -87 -28 -54 -55 -116 -60 -138 l-8 -40 -1 35 c-1 25 15 66 50 134 28 53 48 104 45 112 -3 8 -17 14 -30 14 -27 0 -46 25 -46 59 0 19 6 21 70 21 l70 0 -1 -87z m1 -375 c-1 -51 -1 -52 -15 -28 -8 15 -10 29 -4 35 5 5 9 17 9 27 0 10 2 18 5 18 3 0 5 -24 5 -52z"/>
 <path d="M6781 1194 c-134 -37 -263 -55 -404 -57 l-132 -2 -42 -225 c-23 -124 -45 -250 -49 -280 -4 -30 -11 -61 -16 -67 -7 -8 -6 -24 1 -44 16 -45 14 -49 -18 -49 -29 0 -29 1 -20 32 13 47 -4 54 -36 16 -38 -46 -50 -51 -90 -37 -30 11 -39 11 -63 -3 -19 -11 -67 -17 -166 -21 -137 -6 -166 -13 -151 -37 9 -15 405 -3 445 13 14 5 63 9 110 8 208 -4 476 125 615 296 66 81 43 91 -33 15 -70 -70 -159 -133 -245 -172 -108 -49 -116 -44 -12 8 101 51 190 116 180 132 -3 5 -34 -8 -69 -30 -73 -44 -142 -80 -153 -80 -4 0 16 13 45 29 188 104 331 256 413 440 29 64 30 73 17 89 -8 9 -18 25 -21 35 -7 20 0 21 -106 -9z"/>
 </g>
<g id="layerbg2" fill="#000000" stroke="none">
 <path d="M2695 4123 c-33 -1 -179 -7 -325 -13 -424 -17 -592 -29 -805 -55 -110 -13 -250 -29 -312 -35 -235 -22 -643 -101 -680 -132 -7 -6 -13 -26 -13 -44 0 -42 22 -54 145 -79 50 -10 93 -20 98 -22 4 -2 -20 -22 -53 -44 -147 -98 -229 -258 -271 -523 -7 -47 -19 -84 -28 -92 -9 -7 -45 -34 -80 -60 -57 -41 -63 -48 -48 -59 9 -6 14 -15 10 -18 -3 -4 0 -13 7 -22 14 -17 10 -19 -48 -29 -27 -5 -32 -3 -30 11 2 11 -8 23 -25 31 -24 11 -34 11 -76 -3 -76 -25 -86 -42 -84 -142 2 -65 6 -90 20 -105 20 -22 37 -20 196 18 151 36 311 52 857 84 278 17 511 33 519 36 10 3 11 8 3 16 -8 8 -81 8 -269 -1 -211 -9 -268 -9 -313 2 l-55 14 120 7 c281 16 1113 56 1145 55 19 -1 4 -5 -35 -10 -159 -18 -316 -45 -315 -54 0 -10 89 -10 760 3 212 4 441 4 510 1 l125 -5 -98 -2 c-54 -1 -128 -6 -165 -12 -37 -5 -215 -17 -397 -25 -557 -26 -1824 -94 -2124 -115 -201 -13 -288 -23 -297 -32 -10 -11 0 -51 50 -213 100 -316 133 -387 198 -424 15 -9 26 -21 24 -28 -9 -24 144 -142 274 -211 138 -74 343 -132 466 -132 39 0 50 -6 111 -61 90 -82 170 -141 191 -143 9 -1 73 -29 142 -63 134 -67 208 -89 485 -148 93 -20 170 -37 170 -38 10 -21 242 -411 308 -517 107 -169 214 -285 317 -342 392 -218 1112 -319 1982 -278 647 30 1127 142 1418 331 98 63 317 238 396 317 154 152 233 315 383 788 l52 162 61 11 c86 15 190 68 272 137 37 33 83 68 101 79 17 11 40 27 49 34 17 14 17 16 -1 29 -17 13 -17 14 1 28 11 8 28 14 38 14 32 0 48 42 54 141 7 109 48 339 69 387 13 29 19 33 48 30 l32 -3 2 79 c2 78 2 79 -32 113 -26 26 -35 43 -35 69 0 42 -23 89 -47 98 -9 4 -52 10 -95 13 -76 6 -78 7 -78 32 0 54 -49 259 -79 335 -39 96 -105 199 -165 254 -53 48 -28 44 -456 77 -349 26 -1025 116 -2040 269 -272 41 -519 78 -547 82 -34 4 -71 18 -104 40 -63 40 -103 49 -322 69 -416 38 -927 54 -1262 38z m1446 -344 c51 -26 118 -92 152 -150 38 -66 69 -149 54 -146 -7 1 -11 -7 -10 -20 4 -35 -3 -28 -22 25 -44 117 -175 261 -239 263 -20 0 -20 1 2 10 31 12 19 29 -22 29 -40 0 -50 -8 -33 -28 6 -8 10 -18 8 -21 -2 -3 12 -14 31 -23 19 -9 41 -24 49 -34 9 -11 9 -15 2 -10 -23 13 -36 -5 -17 -25 29 -32 6 -21 -54 26 -41 32 -66 45 -90 45 l-32 0 16 25 c37 57 131 72 205 34z m-2020 -174 c371 -41 694 -77 719 -81 74 -11 23 -20 -185 -33 -104 -6 -233 -20 -285 -31 -52 -10 -185 -24 -295 -30 -110 -6 -244 -18 -299 -25 -54 -7 -104 -11 -111 -9 -7 3 -35 41 -64 84 -28 43 -77 106 -109 139 -32 34 -55 61 -52 61 4 0 310 -34 681 -75z m2091 -55 c14 -11 28 -28 30 -38 8 -31 -29 -21 -52 13 -32 49 -22 60 22 25z m-92 -5 c17 -9 38 -32 49 -53 32 -65 34 -80 12 -108 -19 -24 -19 -27 -4 -51 17 -26 17 -26 -4 -14 -35 18 -60 13 -83 -16 l-21 -28 5 34 c8 47 -7 61 -68 61 -60 0 -85 -19 -111 -85 l-15 -40 5 68 c6 72 34 159 63 192 46 55 113 70 172 40z m2674 -231 c-14 -49 -31 -94 -36 -101 -16 -20 -95 -46 -121 -39 -16 4 -31 22 -47 56 -13 28 -27 53 -31 56 -4 2 -68 -11 -141 -31 -73 -19 -155 -35 -183 -34 -27 0 -165 15 -305 33 l-255 34 143 1 c172 1 706 45 809 67 40 8 99 23 130 33 32 10 59 17 61 15 2 -1 -9 -42 -24 -90z m-2994 -77 c0 -6 48 -162 56 -181 7 -17 5 -17 -14 2 -12 12 -28 22 -36 22 -7 0 -16 10 -20 23 -10 36 -7 137 4 137 6 0 10 -1 10 -3z m3566 -94 c4 -16 19 -44 34 -63 39 -51 47 -68 21 -46 -12 11 -31 35 -42 53 -23 36 -40 41 -59 18 -9 -11 -22 -14 -41 -10 -21 5 -31 1 -43 -17 -25 -35 -19 -5 7 33 42 62 112 80 123 32z m-3224 -43 c25 -15 29 -20 16 -25 -21 -8 -58 11 -58 30 0 19 3 19 42 -5z m-915 -16 c40 -5 50 -10 46 -22 -5 -13 -31 -13 -197 -6 -317 15 -474 6 -551 -30 -22 -11 -150 -20 -485 -36 -250 -11 -675 -34 -944 -50 -338 -21 -493 -27 -501 -20 -12 10 -93 6 -155 -6 -24 -5 -24 -5 -6 15 21 23 16 28 -44 34 -19 2 6 5 55 6 83 1 190 7 570 31 1046 65 2051 103 2212 84z m818 -107 c32 7 61 11 64 9 4 -3 21 -25 39 -50 l33 -46 -32 -14 c-40 -17 -84 -11 -127 17 -34 23 -74 76 -87 116 -6 21 -3 19 23 -10 l30 -34 57 12z m-80 -76 c44 -39 109 -70 145 -71 l25 -1 -28 -24 c-37 -33 -58 -31 -82 8 -26 41 -54 45 -84 13 l-24 -26 -44 57 -44 56 27 28 c20 20 24 33 19 51 -5 16 2 11 22 -17 16 -22 47 -55 68 -74z m3329 -250 c17 -18 25 -32 17 -29 -20 6 -68 68 -75 98 -6 22 -5 21 10 -5 9 -16 30 -45 48 -64z m-95 -32 c-15 -9 -22 3 -33 61 l-7 35 27 -44 c21 -35 24 -45 13 -52z m-4251 65 c12 -8 22 -21 20 -27 -4 -22 15 -61 43 -90 16 -16 29 -39 29 -53 0 -25 -13 -31 -79 -36 -43 -4 -51 -24 -17 -39 19 -9 26 -20 26 -40 0 -35 -9 -37 -152 -41 -95 -3 -108 -1 -112 15 -4 15 5 17 74 17 75 0 79 1 105 31 15 19 22 36 17 41 -5 5 -53 7 -107 6 -96 -3 -99 -4 -106 -28 -7 -24 -7 -23 -8 6 -1 17 5 37 13 43 8 7 29 36 47 66 31 52 33 53 47 34 10 -15 17 -18 25 -10 8 8 24 3 55 -15 39 -23 46 -24 59 -11 14 13 10 19 -33 51 -52 37 -81 44 -103 24 -11 -11 -12 -10 -6 1 9 15 74 45 82 37 9 -9 44 14 38 25 -10 15 18 11 43 -7z m-244 -79 c-14 -25 -32 -65 -39 -88 -12 -36 -14 -38 -14 -14 -1 29 30 99 57 130 25 29 24 19 -4 -28z m397 -45 c4 0 16 -14 25 -32 16 -30 15 -32 -7 -49 -28 -21 -39 -16 -39 16 0 13 -5 36 -10 50 -9 23 -8 26 6 21 8 -3 20 -6 25 -6z m-2566 -34 c-43 -19 -73 -55 -101 -122 l-25 -59 4 43 c3 24 16 58 28 77 24 35 83 75 109 74 8 0 2 -6 -15 -13z m958 -98 c36 -79 40 -97 18 -83 -26 15 -82 165 -62 165 4 0 23 -37 44 -82z m-828 60 c14 -6 25 -14 25 -18 0 -4 13 -27 30 -51 16 -24 30 -51 30 -60 0 -18 -28 -29 -71 -29 -45 0 -53 -23 -19 -49 38 -28 39 -51 3 -51 -31 1 -90 29 -61 30 9 0 20 5 24 12 13 21 -28 38 -93 38 -45 0 -65 4 -69 14 -6 15 61 156 80 168 17 12 92 9 121 -4z m1999 -188 c5 -23 4 -30 -2 -20 -5 8 -12 33 -16 55 -7 48 8 19 18 -35z m494 40 c13 -22 13 -33 -1 -81 -35 -118 -124 -189 -221 -176 -57 8 -149 43 -178 68 -22 19 -22 19 19 -1 113 -55 249 18 288 155 9 30 20 53 25 50 5 -3 12 -1 15 5 11 18 38 7 53 -20z m-380 -60 c12 -1 10 -5 -8 -15 -28 -15 -32 -11 -44 40 l-8 30 22 -28 c12 -15 29 -27 38 -27z m207 32 c-27 -23 -134 -102 -140 -102 -16 0 113 109 130 110 11 0 15 -3 10 -8z m1589 -74 c-48 -83 -187 -206 -219 -194 -33 12 -14 41 46 70 33 16 85 53 117 82 60 56 68 61 56 42z m-3739 -38 c39 -76 -10 -199 -87 -216 -39 -8 -140 5 -133 17 4 5 15 9 26 9 31 0 113 91 145 159 15 34 29 61 30 61 2 0 10 -13 19 -30z m-165 -54 c-36 -19 -66 -33 -68 -31 -11 10 23 46 51 54 75 22 83 10 17 -23z m1151 -296 c31 -47 75 -107 98 -135 63 -73 192 -184 207 -178 7 2 55 -23 106 -57 109 -71 263 -149 366 -183 72 -24 73 -25 38 -31 -39 -7 -152 34 -276 101 -46 25 -121 49 -263 84 -238 59 -322 86 -430 140 -115 58 -282 178 -267 192 3 3 41 -10 85 -28 107 -45 388 -107 421 -94 14 5 23 13 20 18 -4 5 -41 56 -85 113 -71 95 -180 273 -197 323 -4 11 22 -25 58 -80 35 -55 89 -138 119 -185z m2458 154 c-55 -41 -116 -69 -251 -113 -161 -52 -272 -71 -408 -71 -195 0 -377 46 -575 145 l-110 55 95 -4 c74 -4 118 -12 200 -40 178 -60 259 -69 488 -57 213 12 387 41 507 84 90 32 96 32 54 1z m3291 -103 c0 -25 -53 -64 -142 -106 -120 -56 -308 -83 -351 -51 -24 18 -15 22 63 31 130 15 293 70 317 108 9 15 59 34 91 36 15 1 22 -5 22 -18z m-6639 -30 c101 -22 209 -44 239 -50 46 -10 59 -17 78 -46 12 -19 22 -38 22 -41 0 -13 -130 7 -217 32 -87 25 -215 81 -283 122 -19 12 -32 22 -29 22 3 0 89 -18 190 -39z m2165 -269 c100 -39 212 -80 250 -91 128 -38 434 -89 599 -100 88 -6 237 -16 330 -22 94 -6 172 -13 175 -15 2 -3 -142 -4 -320 -4 -324 2 -325 2 -510 -30 -175 -31 -194 -32 -360 -27 -96 3 -305 15 -465 27 -267 20 -293 24 -340 47 -76 39 -287 173 -315 200 l-25 25 60 -7 c98 -11 646 -15 694 -4 36 8 47 7 63 -7 14 -14 25 -16 45 -8 15 5 26 14 26 19 -1 6 -28 25 -60 43 -69 40 -75 42 153 -46z m964 13 c107 -18 183 -34 168 -34 -30 -1 -309 45 -353 58 -51 16 -16 11 185 -24z m2960 -5 c-8 -5 -49 -17 -90 -26 -86 -20 -103 -30 -70 -42 44 -16 -106 -33 -344 -39 -169 -4 -227 -3 -222 6 5 7 60 11 171 11 148 0 194 7 165 25 -24 15 -5 23 68 29 43 4 130 15 193 25 142 23 149 24 129 11z m-1398 -82 c307 -6 556 -14 553 -16 -8 -8 -1218 21 -1245 29 -15 5 6 7 55 4 44 -3 331 -10 637 -17z m1329 -85 c11 -13 11 -15 1 -9 -7 4 -43 11 -80 16 l-67 7 66 2 c52 1 70 -3 80 -16z m-433 -10 c-21 -2 -57 -2 -80 0 -24 2 -7 4 37 4 44 0 63 -2 43 -4z m-490 -30 c-32 -2 -86 -2 -120 0 -35 2 -9 3 57 3 66 0 94 -1 63 -3z m-523 -12 c-89 -5 -100 -8 -99 -24 2 -17 1 -17 -16 -2 -18 16 -27 14 -162 -30 -79 -27 -150 -50 -158 -52 -8 -2 23 16 70 40 47 25 84 49 83 53 -2 5 -47 12 -100 15 -54 3 33 5 192 5 160 0 245 -2 190 -5z m1203 -13 c-2 -7 12 -15 31 -18 29 -4 37 -12 52 -48 l18 -43 -27 -10 c-108 -42 -522 -108 -522 -85 0 20 55 174 66 186 24 24 386 41 382 18z m-725 -39 c14 -8 17 -24 17 -89 l0 -80 -47 7 c-62 8 -69 14 -77 72 -3 27 -15 60 -26 74 l-20 26 22 4 c30 6 108 -2 131 -14z m154 -86 c-2 -21 -4 -4 -4 37 0 41 2 58 4 38 2 -21 2 -55 0 -75z m-718 -58 c-4 -15 -19 -22 -55 -28 -27 -5 -56 -12 -64 -16 -8 -3 -59 -4 -114 -1 -97 5 -98 5 -127 40 -16 19 -29 39 -29 45 0 6 74 23 178 39 97 16 184 32 192 37 12 6 16 -2 20 -44 3 -29 3 -61 -1 -72z m-2609 4 c19 -6 13 -7 -26 -8 -38 -1 -51 3 -51 14 0 15 12 14 77 -6z m1810 14 c-8 -3 -28 -15 -43 -25 -27 -20 -29 -20 -49 -2 l-20 19 28 6 c36 8 104 9 84 2z m99 -66 c30 -64 98 -347 120 -504 5 -34 7 -80 4 -102 -5 -35 -7 -39 -18 -25 -10 15 -14 12 -32 -22 -24 -46 -56 -71 -103 -78 -145 -24 -620 -86 -650 -86 -35 0 -41 4 -70 52 -28 46 -34 50 -44 35 -11 -14 -14 -12 -29 17 -15 33 -15 34 6 34 63 0 271 57 397 109 110 45 233 127 302 202 33 35 73 96 101 151 43 85 46 94 33 118 -7 15 -16 43 -20 63 -4 21 -16 49 -27 63 -15 19 -16 24 -5 20 8 -3 24 -25 35 -47z m2151 -70 c-103 -232 -293 -398 -555 -486 -89 -30 -103 -41 -63 -53 17 -4 13 -6 -17 -7 -76 -2 -79 18 -35 248 16 86 36 197 45 248 l17 92 122 0 c128 -1 256 17 397 54 l84 22 19 -23 c18 -23 18 -24 -14 -95z m-3900 93 c45 -4 59 -8 35 -9 -22 0 -57 -6 -78 -12 -47 -13 -73 -5 -73 21 0 15 5 19 20 14 11 -4 54 -10 96 -14z m1414 -11 c-15 -15 -28 -18 -47 -14 -50 13 -28 28 48 34 19 1 19 1 -1 -20z m273 -54 l10 -55 -56 7 c-31 3 -58 7 -59 9 -2 1 -1 12 3 23 6 19 69 71 86 71 3 0 10 -25 16 -55z m-1864 11 c121 -17 162 -27 180 -43 30 -27 274 -90 289 -75 8 8 4 14 -16 22 -15 5 -30 10 -34 10 -4 0 -25 12 -47 25 l-40 25 255 0 c236 -1 252 -2 215 -16 -30 -11 -79 -14 -202 -12 -97 2 -164 -1 -165 -7 -4 -13 79 -36 133 -36 38 0 46 -3 45 -17 -1 -15 12 -17 89 -20 l90 -3 53 -226 c38 -164 50 -229 42 -237 -15 -15 -406 -13 -490 2 -104 20 -117 28 -134 81 -8 25 -40 143 -72 261 -31 118 -60 219 -64 224 -5 4 -13 -1 -19 -13 -10 -17 -1 -62 49 -248 33 -124 59 -227 57 -229 -6 -7 -104 44 -135 71 -46 39 -77 87 -177 275 -49 91 -97 175 -108 188 l-20 22 34 0 c19 0 105 -11 192 -24z m2307 -15 c0 -26 38 -71 61 -71 10 0 19 -3 19 -6 0 -3 -22 -49 -50 -102 -27 -53 -50 -110 -51 -127 0 -30 0 -30 -10 -5 -6 14 -26 79 -45 145 -19 66 -37 128 -40 139 -4 12 -2 16 6 11 6 -4 19 0 28 8 21 19 64 36 75 30 4 -2 7 -12 7 -22z m880 3 c31 -7 32 -8 25 -51 -3 -24 -1 -58 5 -77 7 -22 7 -41 1 -57 -6 -15 -10 -18 -10 -8 -1 24 -29 45 -42 32 -8 -8 -5 -24 9 -56 30 -67 35 -102 27 -183 l-7 -74 -196 0 c-115 0 -253 7 -332 16 -74 8 -145 13 -157 11 l-23 -4 0 142 0 141 48 -46 c61 -59 99 -69 254 -71 106 -1 134 3 171 19 61 27 101 83 122 175 9 39 18 78 21 85 4 13 34 15 84 6z m-2075 -64 c11 -9 13 -34 11 -98 -3 -74 -8 -97 -35 -152 l-32 -65 3 95 c2 71 -1 94 -10 93 -8 -2 -12 15 -12 56 0 33 -3 67 -7 77 -6 15 -2 16 31 11 21 -3 44 -11 51 -17z m741 -84 c-48 -158 -251 -320 -481 -382 -74 -20 -87 -19 -79 10 10 40 -28 70 -80 63 -25 -4 -50 -1 -66 8 -17 9 -30 10 -43 3 -10 -5 -21 -8 -23 -5 -2 2 14 56 37 121 l42 116 41 -38 c70 -64 115 -76 262 -68 69 3 140 12 157 20 45 18 92 75 112 135 12 37 23 52 38 56 21 4 89 11 95 9 1 0 -4 -22 -12 -48z m592 -139 c-2 -99 -6 -120 -20 -128 -16 -9 -16 -12 4 -45 11 -19 18 -37 15 -40 -3 -3 -28 5 -56 17 -61 26 -102 69 -94 99 5 21 7 20 34 -6 20 -19 32 -25 39 -18 7 7 4 16 -10 29 -33 30 -26 79 28 182 47 92 47 93 55 61 5 -18 7 -85 5 -151z m-2542 -39 c31 -57 64 -113 72 -125 8 -13 12 -23 9 -23 -7 0 -95 146 -126 208 -39 77 -14 43 45 -60z m4024 -72 c0 -15 -157 -124 -234 -161 -92 -46 -223 -85 -281 -85 -27 0 -34 4 -38 25 -4 24 -3 25 13 10 22 -20 79 -14 195 22 118 37 217 91 303 165 32 27 42 33 42 24z m-644 -224 c-9 -27 -56 -42 -130 -42 -58 0 -60 1 -38 16 22 15 37 15 89 -1 17 -5 29 0 50 22 32 32 38 33 29 5z m-298 -49 c-15 -2 -42 -2 -60 0 -18 2 -6 4 27 4 33 0 48 -2 33 -4z m-313 -53 c133 -5 297 -5 390 0 381 21 385 21 335 7 -32 -10 -44 -18 -42 -29 3 -20 -16 -26 -208 -72 -324 -77 -488 -102 -773 -116 -193 -10 -316 -6 -962 27 l-350 18 182 7 c360 13 588 46 725 104 55 24 81 28 203 33 128 5 140 8 137 24 -3 17 3 18 65 12 37 -3 172 -10 298 -15z m-810 -35 c-22 -8 -49 -13 -60 -13 -11 0 0 6 25 13 59 17 87 17 35 0z m-735 -5 c0 -12 -20 -12 -75 -1 -40 9 -39 9 18 10 32 0 57 -3 57 -9z m-207 -67 c-18 -2 -48 -2 -65 0 -18 2 -4 4 32 4 36 0 50 -2 33 -4z"/>
 <path d="M4106 3771 c-9 -15 23 -36 35 -24 8 8 5 14 -9 22 -12 6 -23 7 -26 2z"/>
 <path d="M540 2455 c-13 -15 -6 -19 57 -39 32 -10 41 14 13 36 -27 22 -53 23 -70 3z"/>
 <path d="M6755 1550 c-3 -5 0 -13 9 -16 21 -8 61 -1 61 11 0 14 -62 19 -70 5z"/>
 <path d="M1715 2850 c-8 -13 20 -24 41 -16 20 8 9 26 -16 26 -10 0 -22 -5 -25 -10z"/>
 </g>
<g id="layer101" fill="#ffffff" stroke="none">
 <path d="M0 2140 l0 -2140 4020 0 4020 0 0 2140 0 2140 -4020 0 -4020 0 0 -2140z m3552 1965 c282 -17 553 -42 624 -56 28 -5 74 -25 103 -43 33 -22 70 -36 104 -40 28 -4 288 -43 577 -86 1052 -159 1656 -238 2048 -269 410 -32 382 -24 464 -125 87 -109 143 -250 176 -451 l19 -110 72 -7 c39 -3 82 -9 95 -12 29 -7 46 -45 46 -101 0 -32 4 -45 14 -45 8 0 24 -11 35 -26 16 -20 19 -39 18 -97 l-1 -73 -27 4 c-21 3 -31 -2 -45 -22 -24 -38 -62 -229 -74 -375 -11 -130 -20 -161 -48 -161 -25 0 -59 -26 -65 -50 -4 -18 -2 -20 16 -14 29 8 11 -11 -36 -40 -19 -12 -66 -47 -103 -80 -83 -70 -188 -123 -276 -138 l-65 -10 -22 -72 c-171 -547 -256 -730 -410 -883 -75 -75 -295 -250 -391 -312 -291 -189 -771 -301 -1418 -331 -870 -41 -1591 60 -1982 278 -101 56 -201 164 -307 332 -118 189 -303 503 -303 517 0 5 -62 22 -137 38 -293 59 -401 91 -533 157 -69 35 -133 63 -142 64 -21 2 -101 61 -191 143 -61 55 -72 61 -111 61 -123 0 -328 58 -466 132 -84 44 -216 137 -252 175 -21 24 -22 25 -3 20 60 -17 150 -29 181 -24 95 16 155 151 104 235 -11 17 -22 32 -25 32 -3 0 -20 -30 -37 -66 -38 -81 -102 -148 -147 -157 -90 -18 -167 41 -215 164 -50 129 -155 474 -146 482 13 15 1307 91 2415 142 182 8 344 18 360 21 17 3 94 9 172 13 132 6 165 12 150 27 -9 9 -708 5 -1012 -6 -148 -5 -301 -9 -340 -9 l-70 1 120 19 c66 10 209 27 318 37 196 19 261 32 155 32 -150 0 -1504 -71 -1653 -87 -94 -10 -34 -23 108 -23 67 0 163 -1 212 -3 50 -1 176 1 280 5 105 4 186 6 180 3 -5 -2 -237 -18 -515 -35 -546 -32 -706 -48 -857 -84 -146 -35 -178 -39 -190 -24 -18 22 -26 159 -11 188 19 35 103 65 141 51 25 -10 26 -13 16 -32 -11 -21 -10 -21 27 -15 98 17 97 16 80 35 -25 27 -20 31 36 31 49 0 50 -1 35 -18 -25 -27 -21 -34 16 -28 93 15 149 17 143 7 -9 -14 -53 -16 517 19 270 16 679 39 907 50 501 24 596 31 555 40 -25 5 -19 8 42 19 92 16 230 18 466 7 186 -9 188 -9 209 13 11 12 18 24 15 27 -27 27 -1207 -7 -1972 -57 -279 -18 -424 -27 -640 -38 -115 -6 -245 -13 -288 -15 -42 -2 -75 -1 -72 4 3 4 36 29 75 56 38 26 72 54 74 63 3 9 12 57 20 106 32 183 73 289 154 392 35 43 135 122 174 136 24 8 3 16 -97 37 -145 31 -155 36 -155 76 0 18 4 35 8 38 45 28 466 106 675 126 62 6 202 22 312 35 213 26 381 38 805 55 146 6 292 12 325 13 194 9 652 5 857 -8z m-1799 -1262 c-7 -2 -19 -2 -25 0 -7 3 -2 5 12 5 14 0 19 -2 13 -5z"/>
 <path d="M3972 3790 c-18 -11 -35 -27 -38 -35 -3 -8 -16 -17 -27 -21 -22 -7 -22 -7 -2 -15 11 -4 34 -8 50 -8 20 -1 53 -19 100 -55 38 -30 72 -53 74 -50 3 2 -6 18 -18 35 -23 31 -23 31 -2 24 12 -3 21 -2 21 3 0 14 -59 62 -75 62 -8 0 -17 5 -21 11 -13 22 61 -3 114 -38 66 -45 128 -138 173 -258 47 -129 66 -142 34 -25 -19 70 -18 73 5 30 30 -55 24 -10 -11 80 -82 214 -256 334 -377 260z m106 -17 c-10 -2 -28 -2 -40 0 -13 2 -5 4 17 4 22 1 32 -1 23 -4z m57 -21 c-3 -3 -11 0 -18 7 -9 10 -8 11 6 5 10 -3 15 -9 12 -12z"/>
 <path d="M1473 3627 c34 -34 88 -101 119 -148 32 -48 63 -89 71 -92 8 -3 59 1 113 8 55 7 189 19 299 25 110 6 243 20 295 30 52 11 176 24 275 30 178 11 265 24 265 41 0 5 -6 9 -13 9 -7 0 -337 36 -732 80 -395 44 -727 80 -737 80 -12 0 1 -19 45 -63z"/>
 <path d="M4177 3530 c25 -39 41 -56 47 -50 7 7 17 -1 29 -22 l18 -33 -5 33 c-11 62 -35 99 -77 116 -22 9 -42 16 -44 16 -3 0 12 -27 32 -60z"/>
 <path d="M3987 3552 c-63 -42 -107 -137 -110 -239 -2 -70 11 -82 30 -29 22 65 39 77 102 74 l56 -3 -3 -52 c-2 -29 -2 -53 1 -53 3 0 15 16 27 35 25 41 49 44 98 15 39 -24 40 -19 7 24 l-25 33 21 27 c22 28 20 43 -13 109 -35 71 -129 99 -191 59z"/>
 <path d="M6757 3399 c-31 -10 -90 -25 -130 -33 -104 -22 -520 -57 -750 -65 -118 -3 -198 -10 -199 -16 -2 -10 468 -73 557 -74 28 -1 110 15 184 34 73 20 135 34 136 33 1 -2 14 -27 29 -55 31 -63 57 -73 119 -49 23 9 48 20 55 24 18 12 83 222 68 221 -6 -1 -37 -9 -69 -20z"/>
 <path d="M7350 3363 c0 -4 15 -17 33 -29 18 -12 51 -54 77 -98 25 -42 46 -72 48 -66 7 21 -21 80 -57 122 -38 42 -101 87 -101 71z"/>
 <path d="M4960 3302 c0 -7 1513 -173 1569 -172 13 0 22 2 19 6 -6 5 -1522 174 -1565 174 -13 0 -23 -4 -23 -8z"/>
 <path d="M7424 3235 c18 -30 39 -68 46 -85 16 -38 31 -39 20 -1 -10 37 -27 68 -57 109 -39 52 -45 37 -9 -23z"/>
 <path d="M3770 3193 c0 -75 10 -134 21 -127 21 13 49 -10 65 -53 l18 -46 -28 -24 -28 -24 26 -37 c15 -20 37 -50 51 -67 l24 -29 21 27 c29 37 56 34 81 -8 25 -42 47 -44 88 -9 34 28 33 44 -3 44 -39 0 -124 50 -169 100 -45 50 -68 99 -109 230 -16 52 -28 76 -40 78 -16 3 -18 -5 -18 -55z"/>
 <path d="M7284 3165 c-39 -20 -70 -76 -78 -140 -6 -52 -2 -48 28 28 14 35 18 38 44 32 20 -4 33 -1 42 10 20 24 33 18 70 -35 19 -28 41 -50 48 -50 19 0 15 12 -20 60 -18 24 -37 58 -43 75 -12 36 -44 43 -91 20z"/>
 <path d="M4090 3116 c0 -35 37 -58 79 -50 36 8 35 10 -31 48 l-48 27 0 -25z"/>
 <path d="M3900 3099 c0 -26 32 -112 57 -151 53 -80 147 -114 207 -75 l27 18 -33 45 c-46 65 -47 65 -111 52 -67 -14 -76 -9 -117 71 -16 31 -29 49 -30 40z"/>
 <path d="M3040 3023 c0 -11 124 -23 248 -23 48 0 82 4 82 10 0 6 -24 10 -52 10 -29 0 -104 3 -165 7 -73 4 -113 3 -113 -4z"/>
 <path d="M3035 2940 c-4 -7 53 -10 165 -10 112 0 169 3 165 10 -4 6 -70 10 -165 10 -95 0 -161 -4 -165 -10z"/>
 <path d="M738 2842 c-21 -2 -38 -8 -38 -13 0 -9 68 -3 79 7 8 7 -4 9 -41 6z"/>
 <path d="M603 2823 c9 -2 23 -2 30 0 6 3 -1 5 -18 5 -16 0 -22 -2 -12 -5z"/>
 <path d="M7200 2813 c0 -4 7 -33 16 -65 19 -67 73 -134 117 -144 36 -8 34 6 -6 31 -38 24 -72 73 -95 137 -9 26 -20 48 -24 48 -5 0 -8 -3 -8 -7z"/>
 <path d="M7148 2725 c-6 -6 25 -125 32 -125 4 0 14 6 24 13 18 13 18 16 -9 60 -28 48 -39 60 -47 52z"/>
 <path d="M2880 2695 c14 -8 21 -15 15 -15 -85 -9 -101 -20 -155 -109 -23 -39 -47 -74 -52 -77 -31 -19 -13 48 31 118 18 29 44 52 72 66 34 17 39 22 21 22 -52 0 -113 -52 -151 -128 -23 -46 -25 -99 -3 -95 8 2 12 -13 13 -50 0 -35 3 -46 8 -32 6 14 13 -2 30 -65 13 -47 24 -86 26 -88 6 -6 65 29 65 38 0 6 -9 10 -19 10 -18 0 -51 34 -51 52 0 5 48 8 106 8 58 0 114 5 125 10 29 16 26 67 -6 82 -36 16 -31 28 13 28 20 0 47 3 60 6 32 9 29 54 -6 92 -15 16 -33 42 -40 57 -11 23 -11 27 2 22 26 -10 8 17 -27 41 -19 12 -48 22 -68 22 l-34 -1 25 -14z m7 -96 c61 -42 43 -62 -22 -23 -36 20 -49 24 -55 14 -10 -16 -24 5 -16 25 9 24 44 17 93 -16z m7 -151 c-24 -43 -36 -48 -116 -48 l-78 0 0 30 0 30 101 0 c77 0 99 -3 93 -12z"/>
 <path d="M3048 2570 c17 -36 25 -68 26 -115 1 -63 16 -95 16 -35 0 24 7 35 30 48 16 9 30 22 30 27 0 20 -40 75 -54 75 -8 0 -27 11 -43 24 l-29 25 24 -49z"/>
 <path d="M495 2525 c-56 -34 -87 -85 -93 -151 -6 -69 9 -70 31 0 36 114 93 161 182 151 46 -5 49 -5 31 10 -31 24 -104 19 -151 -10z"/>
 <path d="M1440 2530 c-6 -70 26 -158 69 -191 42 -33 37 -4 -18 112 -36 75 -50 97 -51 79z"/>
 <path d="M540 2501 c-8 -5 -33 -45 -54 -90 -48 -98 -43 -111 44 -111 32 0 65 -3 74 -6 20 -8 21 -24 2 -24 -28 0 -26 -19 3 -35 72 -37 118 -3 63 46 -34 30 -32 39 9 39 42 0 79 17 79 37 0 10 -14 38 -30 62 -17 24 -30 48 -30 52 0 29 -123 51 -160 30z m66 -55 c10 -8 16 -17 13 -20 -8 -8 -79 16 -73 26 8 12 38 10 60 -6z"/>
 <path d="M760 2411 c0 -25 24 -111 32 -111 14 0 9 59 -7 90 -16 30 -25 38 -25 21z"/>
 <path d="M2635 2338 c23 -137 145 -243 301 -265 97 -13 195 65 230 183 17 59 14 82 -17 110 -17 15 -24 16 -40 6 -11 -7 -19 -8 -19 -2 0 5 -4 10 -10 10 -5 0 -10 -6 -10 -13 0 -37 -34 -121 -62 -153 -118 -134 -299 -77 -338 105 -8 41 -18 61 -27 61 -12 0 -13 -9 -8 -42z"/>
 <path d="M2887 2265 c-46 -44 -76 -65 -93 -65 -35 0 -29 -16 9 -23 17 -3 47 -9 65 -13 20 -4 32 -3 32 4 0 6 -14 13 -31 17 l-30 7 80 60 c45 33 78 64 75 69 -12 21 -43 5 -107 -56z"/>
 <path d="M4523 2211 c-34 -31 -91 -72 -127 -90 -44 -23 -66 -40 -68 -54 -2 -16 -22 -27 -87 -50 -138 -47 -306 -76 -523 -88 -229 -12 -311 -3 -488 57 -85 29 -125 37 -212 41 -61 3 -108 2 -108 -3 1 -14 243 -124 342 -156 181 -58 386 -74 562 -43 92 16 315 85 381 117 22 11 63 38 92 59 32 24 58 36 68 33 35 -14 188 126 234 214 19 35 1 25 -66 -37z"/>
 <path d="M680 2185 c-53 -13 -90 -42 -90 -71 0 -19 1 -19 80 21 102 51 106 72 10 50z"/>
 <path d="M1631 2124 c45 -101 129 -238 213 -349 68 -89 74 -100 57 -107 -29 -10 -323 58 -420 98 -46 19 -88 33 -95 31 -14 -6 73 -88 144 -137 75 -51 205 -115 294 -145 41 -14 159 -46 262 -71 157 -38 209 -56 309 -104 66 -33 170 -76 230 -97 l110 -38 -72 -6 c-121 -9 -95 -19 50 -19 85 0 137 -4 137 -10 0 -6 -30 -10 -67 -11 -82 -1 -74 -5 31 -18 54 -6 95 -6 132 2 46 9 70 8 161 -10 63 -13 112 -18 117 -13 5 5 -3 12 -20 16 -16 3 -63 15 -106 25 -42 10 -98 19 -125 20 -45 0 -366 76 -332 78 8 1 78 -13 154 -29 76 -17 146 -29 154 -27 22 4 -93 47 -128 47 -42 0 -226 54 -321 95 -95 40 -212 106 -309 172 -38 25 -67 39 -71 34 -7 -12 -128 92 -190 164 -41 47 -140 194 -260 387 -30 49 -58 88 -62 88 -4 0 6 -30 23 -66z"/>
 <path d="M7475 1910 c-29 -10 -44 -19 -35 -22 23 -8 -80 -56 -165 -78 -40 -10 -104 -22 -143 -26 -78 -7 -96 -23 -57 -48 74 -48 345 19 466 115 49 38 55 80 12 78 -16 -1 -50 -9 -78 -19z"/>
 <path d="M725 1904 c46 -34 246 -125 330 -149 49 -14 123 -28 164 -32 l75 -6 -17 26 c-9 15 -24 38 -33 51 -11 18 -31 28 -72 36 -31 6 -140 29 -241 51 -101 21 -193 39 -205 39 -21 -1 -21 -1 -1 -16z"/>
 <path d="M2830 1703 c0 -5 39 -28 86 -52 60 -31 82 -46 72 -52 -20 -13 -39 -11 -58 6 -14 13 -26 14 -61 6 -49 -11 -580 -8 -699 4 l-75 7 29 -30 c27 -30 262 -180 341 -220 34 -17 89 -24 330 -42 160 -12 369 -24 465 -27 166 -5 185 -4 360 27 185 32 185 32 513 30 289 -1 327 1 327 14 0 10 -9 16 -26 16 -14 0 -89 4 -167 10 -78 5 -218 14 -312 20 -176 12 -476 61 -609 101 -38 11 -168 59 -288 105 -119 46 -220 84 -223 84 -3 0 -5 -3 -5 -7z"/>
 <path d="M3630 1701 c0 -32 503 -131 745 -146 50 -3 125 -8 168 -11 46 -3 77 -2 77 4 0 6 -37 13 -82 17 -252 20 -745 98 -890 141 -10 3 -18 1 -18 -5z"/>
 <path d="M6030 1670 c0 -10 21 -14 158 -31 86 -10 114 -8 99 7 -4 4 -175 27 -254 34 -2 0 -3 -4 -3 -10z"/>
 <path d="M6955 1619 c-27 -5 -104 -16 -170 -24 -66 -8 -139 -18 -162 -21 -43 -5 -61 -24 -24 -24 11 0 22 -4 26 -10 9 -15 -294 -16 -880 -3 -297 6 -606 14 -686 17 -135 4 -184 -2 -166 -21 12 -11 1348 -41 1370 -31 10 5 17 5 17 -2 0 -13 324 -13 445 0 147 17 357 77 225 65 l-55 -5 73 21 c45 13 72 26 72 35 0 15 -11 16 -85 3z m-72 -66 c-7 -2 -19 -2 -25 0 -7 3 -2 5 12 5 14 0 19 -2 13 -5z m-75 -10 c-10 -2 -26 -2 -35 0 -10 3 -2 5 17 5 19 0 27 -2 18 -5z"/>
 <path d="M1410 1616 c0 -2 8 -10 18 -17 15 -13 16 -12 3 4 -13 16 -21 21 -21 13z"/>
 <path d="M1480 1556 c0 -2 8 -10 18 -17 15 -13 16 -12 3 4 -13 16 -21 21 -21 13z"/>
 <path d="M6423 1543 c9 -2 25 -2 35 0 9 3 1 5 -18 5 -19 0 -27 -2 -17 -5z"/>
 <path d="M6635 1458 c-222 -10 -285 -17 -285 -29 0 -12 67 -12 308 3 148 9 216 9 255 1 28 -6 54 -9 56 -7 2 2 -4 13 -14 24 -20 23 -19 23 -320 8z"/>
 <path d="M5440 1410 c-301 -4 -421 -8 -435 -17 -16 -10 1 -13 100 -13 l120 -1 -89 -45 c-132 -68 -97 -73 84 -12 l153 51 20 -24 c18 -23 18 -24 0 -31 -10 -4 -92 -19 -183 -33 -219 -35 -204 -30 -183 -67 10 -16 31 -41 46 -54 25 -21 38 -24 113 -24 l84 0 0 -290 c0 -187 4 -290 10 -290 6 0 10 20 10 45 0 53 -8 52 175 30 67 -8 210 -15 323 -15 184 0 203 2 209 18 15 36 9 196 -8 227 -9 17 -20 40 -23 53 -10 31 12 29 24 -3 12 -32 18 -31 30 1 7 18 7 38 -1 63 -8 26 -8 52 -1 84 l9 46 -64 7 c-35 3 -66 4 -69 1 -3 -2 -14 -42 -25 -88 -25 -106 -56 -155 -116 -181 -37 -16 -65 -20 -171 -19 -152 2 -193 13 -250 67 l-43 41 3 104 3 104 55 8 c30 4 61 14 69 22 16 16 16 129 0 172 -5 14 -8 28 -5 30 2 2 155 7 340 10 278 5 338 4 352 -8 15 -12 16 -29 11 -139 -4 -69 -20 -226 -35 -350 -16 -124 -26 -234 -22 -245 7 -19 8 -18 13 5 15 64 77 598 77 655 0 98 -30 116 -189 113 -58 -2 -293 -5 -521 -8z"/>
 <path d="M6575 1398 c-115 -4 -222 -13 -237 -19 -24 -10 -32 -25 -58 -105 -16 -52 -30 -99 -30 -105 0 -25 319 18 478 64 45 13 85 26 87 29 3 3 -4 28 -16 56 -20 48 -24 52 -58 53 -20 1 5 5 54 10 144 12 148 9 160 -110 8 -80 25 -80 25 0 0 64 -17 107 -51 124 -31 16 -37 16 -354 3z"/>
 <path d="M5831 1363 l-44 -4 31 -19 c30 -19 52 -67 52 -117 0 -28 25 -53 54 -53 13 0 38 -3 55 -6 l31 -6 0 86 c0 78 -2 87 -22 100 -27 17 -94 25 -157 19z"/>
 <path d="M4270 1168 c-162 -33 -297 -62 -299 -64 -13 -12 20 -9 171 15 133 22 173 25 195 16 24 -10 30 -8 48 12 27 31 125 51 141 28 15 -20 24 -19 54 5 54 42 112 11 126 -69 4 -20 13 -48 20 -63 13 -24 10 -33 -32 -118 -26 -50 -69 -116 -96 -146 -64 -69 -189 -153 -298 -197 -122 -51 -319 -105 -398 -110 -27 -2 -28 -11 -6 -59 19 -43 31 -48 36 -16 2 18 8 13 35 -30 30 -48 35 -52 71 -52 34 0 580 72 637 84 11 3 28 5 37 5 24 1 72 45 92 83 17 32 17 32 11 4 -15 -69 -75 -113 -190 -140 -206 -48 -447 -69 -775 -69 -281 0 -440 11 -634 44 -150 25 -209 53 -302 141 -63 60 -87 95 -183 262 -137 239 -185 339 -176 373 9 39 25 18 125 -170 105 -196 134 -241 186 -287 40 -34 141 -86 151 -77 3 4 -22 110 -56 237 -39 144 -59 236 -54 245 6 10 28 -59 67 -203 79 -300 83 -310 114 -326 54 -27 176 -41 379 -41 172 0 205 2 218 16 15 14 11 36 -38 245 l-53 229 -92 3 c-57 2 -92 7 -92 13 0 8 28 9 90 4 58 -5 90 -4 90 3 0 16 -45 23 -163 22 -73 -1 -128 4 -157 13 l-45 15 80 0 c44 0 122 -3 173 -6 50 -4 92 -4 92 0 0 12 72 28 128 28 48 0 54 -2 64 -27 l12 -28 4 33 c2 19 2 36 -1 38 -2 2 -154 3 -338 2 l-334 -3 44 -29 c24 -15 60 -34 80 -41 63 -23 15 -16 -112 17 -70 18 -131 40 -144 51 -18 16 -59 26 -180 43 -314 46 -319 42 -195 -205 79 -156 130 -242 213 -358 104 -144 208 -217 354 -248 264 -55 803 -68 1145 -26 102 12 210 24 240 27 196 17 303 110 303 262 0 106 -83 482 -125 571 -23 48 -78 81 -133 80 -16 -1 -163 -28 -325 -61z"/>
 <path d="M6781 1184 c-138 -38 -267 -56 -402 -55 l-125 0 -44 -237 c-24 -130 -46 -257 -48 -282 -2 -25 -9 -48 -15 -51 -6 -5 -6 -18 2 -39 17 -51 14 -58 -26 -63 -21 -2 -4 -4 38 -5 147 -4 343 70 487 183 63 49 158 152 149 162 -3 2 -32 -23 -65 -56 -133 -130 -317 -223 -488 -246 -47 -6 -53 -4 -68 16 -22 31 -20 46 2 26 10 -10 32 -17 48 -17 85 0 314 97 389 165 l40 36 -70 -42 c-93 -56 -178 -94 -252 -113 -101 -26 -114 -18 -20 14 266 90 462 262 567 498 31 67 32 74 16 90 -9 10 -16 24 -16 30 0 14 5 15 -99 -14z"/>
 <path d="M4593 1141 c-42 -30 -62 -66 -46 -81 4 -4 36 -11 71 -14 62 -7 63 -7 57 16 -3 13 -9 41 -13 62 -4 22 -12 41 -18 43 -6 2 -29 -10 -51 -26z"/>
 <path d="M5053 1125 c-17 -7 -34 -18 -38 -24 -4 -7 -15 -9 -26 -6 -10 4 -19 3 -19 -2 0 -11 76 -272 89 -305 5 -14 14 -29 20 -32 7 -5 7 -15 1 -32 -8 -21 -5 -30 23 -60 28 -30 145 -90 155 -79 3 2 -7 24 -21 49 -18 33 -22 46 -12 46 9 0 16 17 21 46 9 60 0 272 -12 284 -6 6 -29 -29 -62 -93 -59 -116 -66 -163 -30 -197 12 -11 17 -20 11 -20 -20 0 -63 64 -63 95 0 18 21 72 50 127 28 53 50 101 50 107 0 6 -11 11 -24 11 -28 0 -56 33 -56 66 0 29 -19 35 -57 19z"/>
 <path d="M3814 1048 c3 -13 6 -59 6 -103 1 -71 2 -77 14 -57 11 20 12 12 8 -62 -7 -127 2 -136 45 -46 30 63 36 88 39 155 2 44 1 87 -2 97 -5 18 -53 38 -92 38 -20 0 -23 -4 -18 -22z"/>
 <path d="M4605 1010 c-65 -7 -70 -11 -90 -70 -20 -61 -58 -108 -101 -126 -18 -8 -89 -17 -158 -20 -147 -8 -192 4 -262 68 -39 36 -43 38 -52 21 -22 -43 -84 -234 -78 -240 3 -3 16 -2 29 4 17 8 29 7 48 -2 14 -9 40 -12 65 -8 52 7 78 -15 69 -58 -6 -26 -4 -29 17 -29 13 0 46 6 73 14 178 48 366 173 446 297 34 53 64 139 52 149 -5 3 -30 3 -58 0z"/>
 <path d="M3793 804 c-3 -9 1 -30 10 -47 15 -31 16 -31 16 -7 1 14 4 35 7 48 5 16 2 22 -10 22 -9 0 -19 -7 -23 -16z"/>
 <path d="M6065 507 c-33 -44 -49 -50 -91 -35 -29 10 -39 10 -63 -5 -20 -12 -51 -17 -103 -17 -105 0 -208 -11 -208 -23 0 -14 407 2 447 18 24 10 34 23 42 51 6 21 9 40 7 42 -2 2 -16 -12 -31 -31z"/>
 <path d="M6145 409 c-331 -28 -685 -29 -984 -3 -70 6 -74 5 -69 -14 5 -19 0 -20 -131 -24 -120 -4 -143 -8 -199 -32 -170 -72 -409 -100 -867 -100 -250 0 -362 4 -463 17 -156 20 -215 20 -122 1 109 -22 245 -33 740 -59 1179 -62 1321 -56 1908 85 174 42 206 54 199 74 -4 9 12 17 46 25 29 7 66 18 82 26 l30 13 -35 0 c-19 -1 -80 -5 -135 -9z"/>
 <path d="M3800 345 c0 -8 8 -15 19 -15 10 0 39 -3 65 -6 42 -6 46 -5 46 15 0 19 -5 21 -65 21 -51 0 -65 -3 -65 -15z"/>
 </g>
<g id="layer102" fill="#000000" stroke="none">
 <path d="M2695 4113 c-33 -1 -179 -7 -325 -13 -424 -17 -592 -29 -805 -55 -110 -13 -250 -29 -312 -35 -209 -20 -630 -98 -675 -126 -4 -3 -8 -20 -8 -38 0 -40 10 -45 155 -76 100 -21 121 -29 97 -37 -39 -14 -139 -93 -174 -136 -81 -103 -122 -209 -154 -392 -8 -49 -17 -97 -20 -106 -2 -9 -36 -37 -74 -63 -39 -27 -72 -52 -75 -56 -3 -5 30 -6 72 -4 43 2 173 9 288 15 216 11 361 20 640 38 765 50 1945 84 1972 57 3 -3 -4 -15 -15 -27 -21 -22 -23 -22 -209 -13 -236 11 -374 9 -466 -7 -61 -11 -67 -14 -42 -19 41 -9 -54 -16 -555 -40 -228 -11 -637 -34 -907 -50 -570 -35 -526 -33 -517 -19 6 10 -50 8 -143 -7 -37 -6 -41 1 -16 28 15 17 14 18 -35 18 -56 0 -61 -4 -36 -31 17 -19 18 -18 -80 -35 -37 -6 -38 -6 -27 15 10 19 9 22 -16 32 -38 14 -122 -16 -141 -51 -15 -29 -7 -166 11 -188 12 -15 44 -11 190 24 151 36 311 52 857 84 278 17 510 33 515 35 6 3 -75 1 -180 -3 -104 -4 -230 -6 -280 -5 -49 2 -145 3 -212 3 -142 0 -202 13 -108 23 149 16 1503 87 1653 87 106 0 41 -13 -155 -32 -109 -10 -252 -27 -318 -37 l-120 -19 70 -1 c39 0 192 4 340 9 304 11 1003 15 1012 6 15 -15 -18 -21 -150 -27 -78 -4 -155 -10 -172 -13 -16 -3 -178 -13 -360 -21 -1108 -51 -2402 -127 -2415 -142 -9 -8 96 -353 146 -482 48 -123 125 -182 215 -164 45 9 109 76 147 157 17 36 34 66 37 66 3 0 14 -15 25 -32 51 -84 -9 -219 -104 -235 -31 -5 -121 7 -181 24 -60 17 130 -128 255 -195 138 -74 343 -132 466 -132 39 0 50 -6 111 -61 90 -82 170 -141 191 -143 9 -1 73 -29 142 -64 132 -66 240 -98 533 -157 75 -16 137 -33 137 -38 0 -14 185 -328 303 -517 106 -168 206 -276 307 -332 391 -218 1112 -319 1982 -278 647 30 1127 142 1418 331 96 62 316 237 391 312 154 153 239 336 410 883 l22 72 65 10 c88 15 193 68 276 138 37 33 84 68 103 80 47 29 65 48 36 40 -18 -6 -20 -4 -16 14 6 24 40 50 65 50 28 0 37 31 48 161 12 146 50 337 74 375 14 20 24 25 45 22 l27 -4 1 73 c1 58 -2 77 -18 97 -11 15 -27 26 -35 26 -10 0 -14 13 -14 45 0 56 -17 94 -46 101 -13 3 -56 9 -95 12 l-72 7 -19 110 c-33 201 -89 342 -176 451 -82 101 -54 93 -464 125 -392 31 -996 110 -2048 269 -289 43 -549 82 -577 86 -34 4 -71 18 -104 40 -63 40 -103 49 -322 69 -416 38 -927 54 -1262 38z m1438 -319 c93 -49 169 -140 216 -264 35 -90 41 -135 11 -80 -23 43 -24 40 -5 -30 32 -117 13 -104 -34 25 -45 120 -107 213 -173 258 -53 35 -127 60 -114 38 4 -6 13 -11 21 -11 16 0 75 -48 75 -62 0 -5 -9 -6 -21 -3 -21 7 -21 7 2 -24 12 -17 21 -33 18 -35 -2 -3 -36 20 -74 50 -47 36 -80 54 -100 55 -16 0 -39 4 -50 8 -20 8 -20 8 2 15 11 4 24 13 27 21 18 49 135 71 199 39z m-1968 -184 c395 -44 725 -80 732 -80 7 0 13 -4 13 -9 0 -17 -87 -30 -265 -41 -99 -6 -223 -19 -275 -30 -52 -10 -185 -24 -295 -30 -110 -6 -244 -18 -299 -25 -54 -7 -105 -11 -113 -8 -8 3 -39 44 -71 92 -31 47 -85 114 -119 148 -44 44 -57 63 -45 63 10 0 342 -36 737 -80z m2024 -36 c42 -17 66 -54 77 -116 l5 -33 -18 33 c-12 21 -22 29 -29 22 -6 -6 -22 11 -47 50 -20 33 -35 60 -32 60 2 0 22 -7 44 -16z m-62 -24 c30 -18 61 -66 77 -118 5 -15 1 -30 -13 -48 l-21 -27 25 -33 c33 -43 32 -48 -7 -24 -49 29 -73 26 -98 -15 -12 -19 -24 -35 -27 -35 -3 0 -3 24 -1 53 l3 52 -56 3 c-63 3 -80 -9 -102 -74 -19 -53 -32 -41 -30 29 3 102 47 197 110 239 37 23 100 23 140 -2z m2677 -237 c-18 -58 -39 -110 -46 -115 -7 -4 -32 -15 -55 -24 -62 -24 -88 -14 -119 49 -15 28 -28 53 -29 55 -1 1 -63 -13 -136 -33 -74 -19 -156 -35 -184 -34 -89 1 -559 64 -557 74 1 6 81 13 199 16 230 8 646 43 750 65 40 8 99 23 130 33 32 11 63 19 69 20 7 1 -1 -41 -22 -106z m647 -21 c36 -42 64 -101 57 -122 -2 -6 -23 24 -48 66 -26 44 -59 86 -77 98 -18 12 -33 25 -33 29 0 16 63 -29 101 -71z m-1677 -67 c687 -75 836 -94 755 -95 -56 -1 -1569 165 -1569 172 0 4 10 8 23 8 12 0 368 -38 791 -85z m1659 33 c30 -41 47 -72 57 -109 11 -38 -4 -37 -20 1 -7 17 -28 55 -46 85 -36 60 -30 75 9 23z m-3605 -88 c41 -131 64 -180 109 -230 45 -50 130 -100 169 -100 36 0 37 -16 3 -44 -41 -35 -63 -33 -88 9 -25 42 -52 45 -81 8 l-21 -27 -24 29 c-14 17 -36 47 -51 67 l-26 37 28 24 28 24 -18 46 c-16 43 -44 66 -65 53 -11 -7 -21 52 -21 127 0 50 2 58 18 55 12 -2 24 -26 40 -78z m3547 -25 c6 -17 25 -51 43 -75 35 -48 39 -60 20 -60 -7 0 -29 22 -48 50 -37 53 -50 59 -70 35 -9 -11 -22 -14 -42 -10 -26 6 -30 3 -44 -32 -30 -76 -34 -80 -28 -28 12 93 69 159 134 153 18 -2 28 -12 35 -33z m-3182 -65 c5 -4 -6 -10 -24 -14 -42 -8 -79 15 -79 50 l0 25 48 -27 c26 -15 51 -30 55 -34z m-218 -90 c14 -11 27 -12 72 -2 64 13 65 13 111 -52 l33 -45 -27 -18 c-83 -54 -200 22 -247 161 -26 75 -19 87 13 25 15 -30 36 -61 45 -69z m-657 30 c28 0 52 -4 52 -10 0 -11 -123 -13 -247 -3 -129 10 -103 27 30 20 61 -4 136 -7 165 -7z m47 -80 c4 -7 -53 -10 -165 -10 -112 0 -169 3 -165 10 4 6 70 10 165 10 95 0 161 -4 165 -10z m-2586 -104 c-11 -10 -79 -16 -79 -7 0 5 17 11 38 13 37 3 49 1 41 -6z m-146 -13 c-7 -2 -21 -2 -30 0 -10 3 -4 5 12 5 17 0 24 -2 18 -5z m6599 -51 c23 -64 57 -113 95 -137 40 -25 42 -39 6 -31 -44 10 -98 77 -117 144 -18 66 -19 72 -8 72 4 0 15 -22 24 -48z m-37 -99 c27 -44 27 -47 9 -60 -10 -7 -20 -13 -24 -13 -7 0 -38 119 -32 125 8 8 19 -4 47 -52z m-4238 15 c35 -24 53 -51 27 -41 -13 5 -13 1 -2 -22 7 -15 25 -41 40 -57 35 -38 38 -83 6 -92 -13 -3 -40 -6 -60 -6 -44 0 -49 -12 -13 -28 32 -15 35 -66 6 -82 -11 -5 -67 -10 -125 -10 -58 0 -106 -3 -106 -8 0 -18 33 -52 51 -52 10 0 19 -4 19 -10 0 -9 -59 -44 -65 -38 -2 2 -13 41 -26 88 -17 63 -24 79 -30 65 -5 -14 -8 -3 -8 32 -1 37 -5 52 -13 50 -22 -4 -20 49 3 95 38 76 99 128 151 128 18 0 13 -5 -21 -22 -28 -14 -54 -37 -72 -66 -44 -70 -62 -137 -31 -118 5 3 29 38 52 77 54 89 70 100 155 109 6 0 -1 7 -15 15 l-25 14 34 1 c20 0 49 -10 68 -22z m139 -118 c14 0 54 -55 54 -75 0 -5 -14 -18 -30 -27 -23 -13 -30 -24 -30 -48 0 -60 -15 -28 -16 35 -1 47 -9 79 -26 115 l-24 49 29 -25 c16 -13 35 -24 43 -24z m-2450 -35 c18 -15 15 -15 -31 -10 -89 10 -146 -37 -182 -151 -22 -70 -37 -69 -31 0 6 66 37 117 93 151 47 29 120 34 151 10z m892 -203 c-5 -25 -53 23 -76 75 -20 49 -26 78 -22 123 1 18 15 -4 51 -79 27 -58 48 -111 47 -119z m-868 163 c17 -9 30 -19 30 -24 0 -4 13 -28 30 -52 16 -24 30 -52 30 -62 0 -20 -37 -37 -79 -37 -41 0 -43 -9 -9 -39 55 -49 9 -83 -63 -46 -29 16 -31 35 -3 35 19 0 18 16 -2 24 -9 3 -42 6 -74 6 -87 0 -92 13 -44 111 21 45 46 85 54 90 24 14 98 10 130 -6z m115 -105 c16 -31 21 -90 7 -90 -8 0 -32 86 -32 111 0 17 9 9 25 -21z m1885 -71 c39 -182 220 -239 338 -105 28 32 62 116 62 153 0 7 5 13 10 13 6 0 10 -5 10 -10 0 -6 8 -5 19 2 16 10 23 9 40 -6 31 -28 34 -51 17 -110 -35 -118 -133 -196 -230 -183 -156 22 -278 128 -301 265 -5 33 -4 42 8 42 9 0 19 -20 27 -61z m324 2 c3 -5 -30 -36 -75 -69 l-80 -60 30 -7 c17 -4 31 -11 31 -17 0 -7 -12 -8 -32 -4 -18 4 -48 10 -65 13 -38 7 -44 23 -9 23 17 0 47 21 93 65 64 61 95 77 107 56z m1595 -73 c-46 -88 -199 -228 -234 -214 -10 3 -36 -9 -68 -33 -29 -21 -70 -48 -92 -59 -66 -32 -289 -101 -381 -117 -176 -31 -381 -15 -562 43 -99 32 -341 142 -342 156 0 5 47 6 108 3 87 -4 127 -12 212 -41 177 -60 259 -69 488 -57 217 12 385 41 523 88 65 23 85 34 87 50 2 14 24 31 68 54 36 18 93 59 127 90 67 62 85 72 66 37z m-3845 -69 c-5 -9 -137 -79 -149 -79 -11 0 -4 29 13 50 11 13 39 27 72 35 56 13 75 11 64 -6z m926 -77 c120 -193 219 -340 260 -387 62 -72 183 -176 190 -164 4 5 33 -9 71 -34 97 -66 214 -132 309 -172 95 -41 279 -95 321 -95 35 0 150 -43 128 -47 -8 -2 -78 10 -154 27 -76 16 -146 30 -154 29 -34 -2 287 -78 332 -78 27 -1 83 -10 125 -20 43 -10 90 -22 106 -25 17 -4 25 -11 20 -16 -5 -5 -54 0 -117 13 -91 18 -115 19 -161 10 -37 -8 -78 -8 -132 -2 -105 13 -113 17 -31 18 37 1 67 5 67 11 0 6 -52 10 -137 10 -145 0 -171 10 -50 19 l72 6 -110 38 c-60 21 -164 64 -230 97 -100 48 -152 66 -309 104 -103 25 -221 57 -262 71 -89 30 -219 94 -294 145 -71 49 -158 131 -144 137 7 2 49 -12 95 -31 97 -40 391 -108 420 -98 17 7 11 18 -57 107 -42 55 -100 141 -130 191 -58 99 -117 224 -106 224 4 0 32 -39 62 -88z m5910 -196 c0 -95 -409 -233 -505 -170 -39 25 -21 41 57 48 39 4 103 16 143 26 85 22 188 70 165 78 -18 6 72 39 113 41 22 1 27 -3 27 -23z m-6649 -25 c101 -22 210 -45 241 -51 41 -8 61 -18 72 -36 9 -13 24 -36 33 -51 l17 -26 -75 6 c-41 4 -115 18 -164 32 -84 24 -284 115 -330 149 -20 15 -20 15 1 16 12 0 104 -18 205 -39z m2127 -255 c120 -46 250 -94 288 -105 133 -40 433 -89 609 -101 94 -6 234 -15 312 -20 78 -6 153 -10 167 -10 17 0 26 -6 26 -16 0 -13 -38 -15 -327 -14 -328 2 -328 2 -513 -30 -175 -31 -194 -32 -360 -27 -96 3 -305 15 -465 27 -241 18 -296 25 -330 42 -79 40 -314 190 -341 220 l-29 30 75 -7 c119 -12 650 -15 699 -4 35 8 47 7 61 -6 19 -17 38 -19 58 -6 10 6 -12 21 -72 52 -73 37 -103 59 -81 59 3 0 104 -38 223 -84z m727 50 c247 -51 533 -94 753 -111 45 -4 82 -11 82 -17 0 -6 -31 -7 -77 -4 -43 3 -118 8 -168 11 -242 15 -745 114 -745 146 0 6 8 8 18 5 9 -3 71 -16 137 -30z m2373 -10 c68 -8 126 -17 129 -20 15 -15 -13 -17 -99 -7 -137 17 -158 21 -158 31 0 6 1 10 3 10 1 0 57 -7 125 -14z m882 -50 c0 -9 -27 -22 -72 -35 l-73 -21 55 5 c132 12 -78 -48 -225 -65 -121 -13 -445 -13 -445 0 0 7 -7 7 -17 2 -22 -10 -1358 20 -1370 31 -18 19 31 25 166 21 80 -3 389 -11 686 -17 586 -13 889 -12 880 3 -4 6 -15 10 -26 10 -37 0 -19 19 24 24 23 3 96 13 162 21 66 8 143 19 170 24 74 13 85 12 85 -3z m-5609 -13 c13 -16 12 -17 -3 -4 -10 7 -18 15 -18 17 0 8 8 3 21 -13z m70 -60 c13 -16 12 -17 -3 -4 -10 7 -18 15 -18 17 0 8 8 3 21 -13z m4957 0 c-10 -2 -26 -2 -35 0 -10 3 -2 5 17 5 19 0 27 -2 18 -5z m497 -93 c10 -11 16 -22 14 -24 -2 -2 -28 1 -56 7 -39 8 -107 8 -255 -1 -241 -15 -308 -15 -308 -3 0 12 63 19 285 29 301 15 300 15 320 -8z m-858 -40 c36 -13 53 -46 53 -105 0 -57 -62 -591 -77 -655 -5 -23 -6 -24 -13 -5 -4 11 6 121 22 245 15 124 31 281 35 350 5 110 4 127 -11 139 -14 12 -74 13 -352 8 -185 -3 -338 -8 -340 -10 -3 -2 0 -16 5 -30 16 -43 16 -156 0 -172 -8 -8 -39 -18 -69 -22 l-55 -8 -3 -104 -3 -104 43 -41 c57 -54 98 -65 250 -67 106 -1 134 3 171 19 60 26 91 75 116 181 11 46 22 86 25 88 3 3 34 2 69 -1 l64 -7 -9 -46 c-7 -32 -7 -58 1 -84 8 -25 8 -45 1 -63 -12 -32 -18 -33 -30 -1 -12 32 -34 34 -24 3 3 -13 14 -36 23 -53 17 -31 23 -191 8 -227 -6 -16 -25 -18 -209 -18 -113 0 -256 7 -323 15 -183 22 -175 23 -175 -30 0 -25 -4 -45 -10 -45 -6 0 -10 103 -10 290 l0 290 -84 0 c-75 0 -88 3 -113 24 -15 13 -36 38 -46 54 -21 37 -36 32 183 67 91 14 173 29 183 33 18 7 18 8 0 31 l-20 24 -153 -51 c-181 -61 -216 -56 -84 12 l89 45 -120 1 c-99 0 -116 3 -100 13 14 9 134 13 435 17 228 3 463 6 521 8 58 1 120 -3 136 -8z m832 -15 c34 -17 51 -60 51 -124 0 -80 -17 -80 -25 0 -12 119 -16 122 -160 110 -49 -5 -74 -9 -54 -10 34 -1 38 -5 58 -53 12 -28 19 -53 16 -56 -2 -3 -42 -16 -87 -29 -159 -46 -478 -89 -478 -64 0 6 14 53 30 105 26 80 34 95 58 105 15 6 122 15 237 19 317 13 323 13 354 -3z m-941 -51 c20 -13 22 -22 22 -100 l0 -86 -31 6 c-17 3 -42 6 -55 6 -29 0 -54 25 -54 53 0 50 -22 98 -52 117 l-31 19 44 4 c63 6 130 -2 157 -19z m-1322 -133 c52 -24 73 -65 113 -226 80 -323 91 -441 50 -522 -42 -81 -144 -135 -279 -147 -30 -3 -138 -15 -240 -27 -342 -42 -881 -29 -1145 26 -146 31 -250 104 -354 248 -83 116 -134 202 -213 358 -124 247 -119 251 195 205 121 -17 162 -27 180 -43 13 -11 74 -33 144 -51 127 -33 175 -40 112 -17 -20 7 -56 26 -80 41 l-44 29 334 3 c184 1 336 0 338 -2 3 -2 3 -19 1 -38 l-4 -33 -12 28 c-10 25 -16 27 -64 27 -56 0 -128 -16 -128 -28 0 -4 -42 -4 -92 0 -51 3 -129 6 -173 6 l-80 0 45 -15 c29 -9 84 -14 157 -13 118 1 163 -6 163 -22 0 -7 -32 -8 -90 -3 -62 5 -90 4 -90 -4 0 -6 35 -11 92 -13 l92 -3 53 -229 c49 -209 53 -231 38 -245 -13 -14 -46 -16 -218 -16 -203 0 -325 14 -379 41 -31 16 -35 26 -114 326 -39 144 -61 213 -67 203 -5 -9 15 -101 54 -245 34 -127 59 -233 56 -237 -10 -9 -111 43 -151 77 -52 46 -81 91 -186 287 -100 188 -116 209 -125 170 -9 -34 39 -134 176 -373 96 -167 120 -202 183 -262 40 -38 98 -81 128 -95 198 -94 960 -122 1418 -52 253 39 335 79 355 171 6 28 6 28 -11 -4 -20 -38 -68 -82 -92 -83 -9 0 -26 -2 -37 -5 -57 -12 -603 -84 -637 -84 -36 0 -41 4 -71 52 -27 43 -33 48 -35 30 -5 -32 -17 -27 -36 16 -22 48 -21 57 6 59 79 5 276 59 398 110 109 44 234 128 298 197 27 30 70 96 96 146 42 85 45 94 32 118 -7 15 -16 43 -20 63 -14 80 -72 111 -126 69 -30 -24 -39 -25 -54 -5 -16 23 -114 3 -141 -28 -18 -20 -24 -22 -48 -12 -22 9 -62 6 -195 -16 -151 -24 -184 -27 -171 -15 7 7 592 124 624 125 17 0 48 -8 71 -18z m2214 -13 c0 -6 7 -20 16 -30 16 -16 15 -23 -16 -90 -46 -104 -108 -193 -187 -269 -114 -110 -224 -176 -380 -229 -94 -32 -81 -40 20 -14 74 19 159 57 252 113 l70 42 -40 -36 c-75 -68 -304 -165 -389 -165 -16 0 -38 7 -48 17 -22 20 -24 5 -2 -26 15 -20 21 -22 68 -16 171 23 355 116 488 246 33 33 62 58 65 56 9 -10 -86 -113 -149 -162 -144 -113 -340 -187 -487 -183 -42 1 -59 3 -38 5 40 5 43 12 26 63 -8 21 -8 34 -2 39 6 3 13 26 15 51 2 25 24 152 48 282 l44 237 125 0 c135 -1 264 17 402 55 104 29 99 28 99 14z m-2218 -74 c4 -21 10 -49 13 -62 6 -23 5 -23 -57 -16 -72 7 -83 14 -73 44 7 24 83 82 99 77 6 -2 14 -21 18 -43z m448 -18 c0 -33 28 -66 56 -66 13 0 24 -5 24 -11 0 -6 -22 -54 -50 -107 -29 -55 -50 -109 -50 -127 0 -31 43 -95 63 -95 6 0 1 9 -11 20 -36 34 -29 81 30 197 33 64 56 99 62 93 12 -12 21 -224 12 -284 -5 -29 -12 -46 -21 -46 -10 0 -6 -13 12 -46 14 -25 24 -47 21 -49 -10 -11 -127 49 -155 79 -28 30 -31 39 -23 60 6 17 6 27 -1 32 -6 3 -15 18 -20 32 -13 33 -89 294 -89 305 0 5 9 6 19 2 11 -3 22 -1 26 6 10 16 66 38 82 32 7 -3 13 -15 13 -27z m-1222 -47 c39 -13 42 -24 38 -124 -3 -67 -9 -92 -39 -155 -43 -90 -52 -81 -45 46 4 74 3 82 -8 62 -12 -20 -13 -14 -14 57 0 44 -3 90 -6 103 -5 18 -2 22 18 22 14 0 39 -5 56 -11z m768 -102 c-30 -101 -114 -197 -246 -283 -101 -65 -251 -124 -318 -124 -21 0 -23 3 -17 29 9 43 -17 65 -69 58 -25 -4 -51 -1 -65 8 -19 9 -31 10 -48 2 -13 -6 -26 -7 -29 -4 -6 6 56 197 78 240 9 17 13 15 52 -21 70 -64 115 -76 262 -68 69 3 140 12 158 20 43 18 81 65 101 126 9 27 22 53 28 57 16 10 110 20 120 13 4 -3 1 -27 -7 -53z m-830 -159 c-3 -13 -6 -34 -7 -48 0 -24 -1 -24 -16 7 -18 35 -12 63 13 63 12 0 15 -6 10 -22z m2263 -302 c-8 -28 -18 -41 -42 -51 -40 -16 -447 -32 -447 -18 0 12 103 23 208 23 52 0 83 5 103 17 24 15 34 15 63 5 42 -15 58 -9 91 35 15 19 29 33 31 31 2 -2 -1 -21 -7 -42z m196 -91 c-16 -8 -53 -19 -82 -26 -34 -8 -50 -16 -46 -25 7 -20 -25 -32 -199 -74 -338 -81 -501 -105 -791 -120 -203 -10 -342 -6 -1117 35 -495 26 -631 37 -740 59 -93 19 -34 19 122 -1 101 -13 213 -17 463 -17 458 0 697 28 867 100 56 24 79 28 199 32 131 4 136 5 131 24 -5 19 -1 20 69 14 299 -26 653 -25 984 3 55 4 116 8 135 9 l35 0 -30 -13z m-2355 -66 c0 -20 -4 -21 -46 -15 -26 3 -55 6 -65 6 -11 0 -19 7 -19 15 0 12 14 15 65 15 60 0 65 -2 65 -21z"/>
 <path d="M4038 3773 c12 -2 30 -2 40 0 9 3 -1 5 -23 4 -22 0 -30 -2 -17 -4z"/>
 <path d="M4117 3759 c7 -7 15 -10 18 -7 3 3 -2 9 -12 12 -14 6 -15 5 -6 -5z"/>
 <path d="M2794 2615 c-8 -20 6 -41 16 -25 6 10 19 6 55 -14 65 -39 83 -19 22 23 -49 33 -84 40 -93 16z"/>
 <path d="M2700 2430 l0 -30 78 0 c63 0 82 4 94 18 36 41 34 42 -71 42 l-101 0 0 -30z"/>
 <path d="M546 2452 c-6 -10 65 -34 73 -26 9 8 -30 34 -50 34 -10 0 -20 -4 -23 -8z"/>
 <path d="M6858 1553 c6 -2 18 -2 25 0 6 3 1 5 -13 5 -14 0 -19 -2 -12 -5z"/>
 <path d="M6773 1543 c9 -2 25 -2 35 0 9 3 1 5 -18 5 -19 0 -27 -2 -17 -5z"/>
 <path d="M1728 2843 c6 -2 18 -2 25 0 6 3 1 5 -13 5 -14 0 -19 -2 -12 -5z"/>
 </g>

</svg>